<svg version="1.1" id="Layer_1" xmlns="http://www.w3.org/2000/svg" xmlns:xlink="http://www.w3.org/1999/xlink" x="0px" y="0px"
	width="139" height="52" viewBox="0 0 500 500" enable-background="new 0 0 500 500" xml:space="preserve">
<path fill="#000000" opacity="1.000000" stroke="none" 
	d="
M224.000000,501.000000 
	C149.333344,501.000000 75.166702,501.000000 1.000040,501.000000 
	C1.000026,334.333405 1.000026,167.666779 1.000013,1.000129 
	C167.666565,1.000086 334.333130,1.000086 500.999756,1.000043 
	C500.999847,167.666534 500.999847,334.333069 500.999939,500.999817 
	C408.833344,501.000000 316.666656,501.000000 224.000000,501.000000 
M440.982513,270.084778 
	C440.987671,267.590027 440.884277,265.089233 441.021698,262.601807 
	C441.271667,258.076782 441.664703,253.559677 442.261353,249.674469 
	C446.209229,255.685089 450.396759,261.555542 454.022583,267.754547 
	C456.533234,272.047028 459.582397,272.991333 464.481140,271.455048 
	C464.579559,259.495697 464.681458,247.536346 464.744110,235.576797 
	C464.745087,235.390701 464.262177,235.202057 463.148804,234.947784 
	C461.431702,234.970749 459.714600,234.993713 457.256134,235.453445 
	C457.113983,242.937012 456.971863,250.420578 456.292480,257.534973 
	C452.258453,251.778946 447.802795,246.263779 444.330841,240.186646 
	C441.795624,235.749100 438.726410,234.144333 433.218964,235.454346 
	C433.218964,247.605682 433.218964,259.757019 433.218964,272.477356 
	C436.069489,271.939270 438.495911,271.481262 440.982513,270.084778 
M198.119476,338.292999 
	C198.082108,337.872009 198.044739,337.451019 197.687546,336.203430 
	C185.576111,336.134430 173.464661,336.052277 161.353180,336.045380 
	C160.879089,336.045105 160.404556,336.764374 159.969879,337.726501 
	C159.944092,338.111481 159.918304,338.496460 159.480865,339.466156 
	C172.029053,339.614166 184.577179,339.769287 197.125763,339.868500 
	C197.435211,339.870972 197.749573,339.253876 198.119476,338.292999 
M446.360687,337.983368 
	C445.892334,338.003815 445.423981,338.024261 444.172638,338.362457 
	C444.172638,339.498230 444.172638,340.634003 444.172638,342.000519 
	C457.270325,342.000519 470.319122,342.010437 483.367737,341.963287 
	C483.875977,341.961456 484.382233,341.412292 484.942688,340.395203 
	C484.915375,339.913605 484.888062,339.431976 484.366119,338.294159 
	C471.930634,338.220184 459.495178,338.146210 446.360687,337.983368 
M432.131836,341.701172 
	C432.595459,342.384216 432.935822,343.497986 433.545013,343.672363 
	C435.674500,344.281830 437.899872,344.836853 440.082092,344.812500 
	C440.746124,344.805084 442.179657,342.310150 441.896698,341.903351 
	C440.938171,340.525360 439.360809,339.581451 438.035645,338.453186 
	C437.410370,337.920837 436.820953,337.346436 435.207520,335.867065 
	C438.057404,336.340332 439.535492,336.585785 442.048645,337.003113 
	C439.261963,334.428986 437.529663,330.905090 434.461670,334.382172 
	C433.419250,335.563599 434.420746,338.548492 434.492340,340.839508 
	C434.582855,340.832947 433.265808,340.928375 431.703400,340.317749 
	C431.475281,339.366180 431.561493,338.057343 430.961029,337.528992 
	C429.043915,335.842163 426.724060,333.032074 424.829041,333.230286 
	C420.880951,333.643311 419.642456,337.344849 419.938843,341.081940 
	C420.206635,344.458740 422.803345,345.613403 425.552582,344.826996 
	C427.879211,344.161438 429.863647,342.299774 432.131836,341.701172 
M332.470764,271.462830 
	C332.470764,259.455627 332.470764,247.448410 332.470764,235.513702 
	C329.957123,235.513702 327.581787,235.513702 325.004486,235.513702 
	C325.004486,246.683228 324.976044,257.469910 325.044189,268.255981 
	C325.051849,269.466522 325.606598,270.673553 326.683563,271.949188 
	C328.415436,271.663361 330.147308,271.377563 332.470764,271.462830 
M378.408997,320.554932 
	C378.408997,308.108124 378.408997,295.661346 378.408997,282.687561 
	C376.007294,283.088654 373.551300,283.498810 371.035492,284.855927 
	C371.035492,296.739288 371.035492,308.622650 371.035492,321.289917 
	C373.794830,320.797516 375.827484,320.434814 378.408997,320.554932 
M260.965057,270.143280 
	C260.974670,268.815063 260.991119,267.486847 260.992767,266.158630 
	C261.003204,257.758728 260.995209,257.667969 269.266479,257.040863 
	C272.053864,256.829559 273.173492,255.624695 272.953735,252.965439 
	C272.700378,249.899475 270.843597,250.199539 268.692108,250.871017 
	C267.927460,251.109650 267.043335,250.950455 266.215942,251.005646 
	C263.159424,251.209473 260.894501,251.112930 260.846619,246.771194 
	C260.799438,242.489914 262.570770,241.638046 266.178406,241.964203 
	C268.154602,242.142838 270.161530,242.038269 272.152557,241.985031 
	C277.070038,241.853546 277.698273,240.834763 276.019745,235.921860 
	C268.722046,235.921860 261.443512,235.921860 253.644592,235.383194 
	C253.644592,247.514191 253.644592,259.645172 253.644592,272.302765 
	C256.007751,271.906982 258.463287,271.495728 260.965057,270.143280 
M382.270477,186.041245 
	C378.445984,185.665054 377.917389,187.983505 377.986145,191.048599 
	C378.093292,195.822830 378.014526,200.601242 378.014526,205.377884 
	C377.421051,205.415497 376.827606,205.453110 376.234131,205.490738 
	C373.301361,201.207779 370.011780,197.119553 367.538055,192.586105 
	C365.152924,188.214966 362.407837,185.556747 356.716095,186.305405 
	C356.716095,197.090729 356.716095,207.876053 356.716095,218.665268 
	C358.912231,218.665268 361.427307,218.665268 363.994843,218.665268 
	C363.994843,216.186279 363.888824,214.030380 364.017181,211.888519 
	C364.275116,207.584869 364.660919,203.288895 364.920105,199.714569 
	C368.944855,205.803543 372.969635,211.892502 377.264587,218.814896 
	C379.709167,218.814896 382.153717,218.814896 384.990265,218.814896 
	C384.990265,208.521103 385.025238,198.281952 384.909454,188.044510 
	C384.901947,187.380539 383.734589,186.729691 382.270477,186.041245 
M286.876282,218.939331 
	C292.629883,218.575348 298.512390,218.833069 304.101135,217.674133 
	C309.795227,216.493317 311.674255,210.538513 308.720154,205.452011 
	C307.995667,204.204514 307.016663,203.104797 306.042603,201.785278 
	C309.786438,198.572464 310.233368,194.464554 307.840759,191.005844 
	C306.265717,188.728973 302.960571,186.688187 300.227051,186.387482 
	C295.548553,185.872818 290.710938,186.805008 285.304047,187.645645 
	C285.203583,195.694000 285.027527,203.742584 285.049622,211.790604 
	C285.056091,214.148514 285.625641,216.504883 286.876282,218.939331 
M249.301041,284.627411 
	C249.200241,289.755035 248.956802,294.885254 249.049255,300.009399 
	C249.109985,303.374634 249.655685,306.731140 249.985504,310.865265 
	C250.814713,317.240509 254.636963,320.353058 262.400665,320.975189 
	C271.406891,321.696930 277.458801,317.720428 279.829529,309.751953 
	C279.885651,301.768097 279.986725,293.783905 279.927399,285.800903 
	C279.921539,285.014282 281.295563,281.503296 277.102905,283.947083 
	C275.461792,283.946411 273.820679,283.945709 271.737366,283.282288 
	C271.523315,291.804688 271.309265,300.327087 270.910950,309.562286 
	C269.055786,313.400635 265.875610,314.729553 261.934906,313.727844 
	C257.880402,312.697144 256.956879,309.420715 256.992432,305.662415 
	C257.039307,300.709686 257.000000,295.756104 256.996552,290.802887 
	C256.991760,283.884094 256.991302,283.884094 249.301041,284.627411 
M286.636292,235.380020 
	C286.636292,247.517639 286.636292,259.655273 286.636292,272.312805 
	C289.010529,271.910889 291.465271,271.495331 293.959564,270.143402 
	C293.959564,266.152863 293.959564,262.162323 293.959564,258.171783 
	C294.682098,257.991394 295.404633,257.811005 296.127167,257.630615 
	C297.862549,260.429657 299.744354,263.149841 301.303192,266.043945 
	C304.660889,272.277893 306.005249,272.965851 313.437347,270.951416 
	C310.845642,266.236694 308.339172,261.677002 305.775360,257.013000 
	C311.445770,255.387955 314.711639,250.355835 313.879578,245.298935 
	C312.970459,239.773651 307.648682,235.249130 302.538361,235.482849 
	C297.414948,235.717209 292.283752,235.780807 286.636292,235.380020 
M391.302094,284.646606 
	C391.230286,295.736206 391.158478,306.825806 390.996307,318.712677 
	C392.456573,323.238617 395.412689,320.426636 398.453613,320.505585 
	C398.635834,316.756622 398.759369,313.003601 399.016998,309.259827 
	C399.268219,305.609131 399.656525,301.967896 400.263062,298.921967 
	C403.744110,304.242188 407.573883,309.372803 410.601288,314.939758 
	C413.258667,319.826233 416.694946,322.008270 423.009613,320.979034 
	C423.340179,319.019104 423.936188,317.061920 423.956451,315.098785 
	C424.057007,305.340546 424.040558,295.580414 423.946167,285.822113 
	C423.938141,284.992493 425.118439,281.885071 421.159210,283.941681 
	C419.500000,283.938263 417.840759,283.934814 415.729797,283.277496 
	C415.496277,284.287994 415.080994,285.294495 415.058838,286.309601 
	C414.916199,292.842529 414.859589,299.377350 414.227509,305.569153 
	C410.572266,300.295227 406.565033,295.224396 403.369293,289.685364 
	C400.640900,284.956360 397.338593,282.728210 391.302094,284.646606 
M211.312073,177.107071 
	C209.267120,177.390289 207.222183,177.673492 204.746719,177.283569 
	C204.495743,185.219101 204.195526,193.153702 204.043671,201.091141 
	C204.019226,202.369553 204.655899,203.660614 204.961060,205.726761 
	C207.395950,215.955139 212.753601,219.642548 223.774979,218.675491 
	C233.250977,217.844040 237.908936,213.347626 238.838821,204.628845 
	C238.891068,196.341400 238.984955,188.053680 238.928680,179.766983 
	C238.923294,178.972427 240.230865,175.583618 236.104614,177.944382 
	C234.128616,177.948257 232.152618,177.952148 229.755157,177.268356 
	C229.506271,184.190430 229.173126,191.111145 229.062469,198.035431 
	C229.031357,199.982758 229.653442,201.940536 229.923737,204.628494 
	C228.654343,209.490280 225.028107,210.757034 220.548141,210.969955 
	C216.696091,211.153030 214.875336,208.995651 213.901733,204.826218 
	C213.932983,196.543671 214.028030,188.260223 213.910904,179.979767 
	C213.897003,178.996841 212.723419,178.030304 211.312073,177.107071 
M206.890259,320.977417 
	C214.840607,320.428711 223.015900,322.410217 230.577072,317.862610 
	C237.671661,313.595581 240.590439,305.419617 237.813446,295.796631 
	C235.550446,287.954681 227.715302,283.623077 220.581238,283.545593 
	C215.783737,283.493469 210.982346,283.798218 205.747910,283.264771 
	C205.660919,295.774384 205.573334,308.284027 205.506226,320.793732 
	C205.505936,320.849976 205.797668,320.907806 206.890259,320.977417 
M332.847382,320.958313 
	C338.813171,320.885162 344.799377,321.096497 350.739716,320.669403 
	C358.797699,320.090057 362.835602,312.286652 358.758667,305.530701 
	C357.885681,304.084076 356.464325,302.968384 355.159393,301.552460 
	C359.182587,298.298737 360.213715,294.287872 358.388092,289.881287 
	C356.921997,286.342438 354.297546,283.865265 349.670898,283.201202 
	C343.566162,283.201202 337.461426,283.201202 331.065552,283.201202 
	C331.065552,295.563019 331.058228,307.682861 331.100647,319.802521 
	C331.101929,320.169373 331.622955,320.534393 332.847382,320.958313 
M291.735077,283.292358 
	C291.503876,283.494110 291.070892,283.695343 291.070343,283.897675 
	C291.039185,295.944580 291.036957,307.991577 291.082306,320.038361 
	C291.083466,320.345306 291.644287,320.650146 292.886444,320.987152 
	C299.016998,320.883759 305.160309,320.989624 311.274445,320.617126 
	C317.175629,320.257568 321.603912,315.375336 320.410858,310.210449 
	C319.671265,307.008759 317.493713,304.139221 316.103027,301.399109 
	C317.373413,298.943787 319.671570,296.471008 319.788391,293.899078 
	C320.110321,286.812378 314.716187,283.756561 308.563202,283.567200 
	C303.107269,283.399323 297.633667,283.805145 291.735077,283.292358 
M471.632233,299.111603 
	C464.436981,299.111603 457.241730,299.111603 449.526459,299.111603 
	C450.042633,301.701904 450.463562,303.814270 451.820068,305.955139 
	C455.574646,305.955139 459.329224,305.955139 463.279602,305.955139 
	C459.793610,315.097992 450.974304,316.802948 444.819794,310.056030 
	C441.030518,305.902039 441.039429,297.569366 444.837280,293.678558 
	C449.128937,289.281860 454.654907,289.168427 459.882904,293.399567 
	C463.118439,296.018188 466.458893,295.201294 469.947723,294.255249 
	C467.537262,284.074554 455.145813,281.163666 446.645599,283.649445 
	C437.655182,286.278625 433.063812,294.155945 434.018463,305.631836 
	C434.567810,312.235138 438.011963,319.040649 448.535217,320.602051 
	C458.882751,322.137360 465.583008,319.950623 469.934937,311.322052 
	C471.597656,308.025391 471.332397,303.756317 471.632233,299.111603 
M144.723495,341.705872 
	C148.935577,339.051361 152.205505,335.860443 152.291000,330.343933 
	C152.306107,329.368103 153.771011,327.708160 154.739990,327.568512 
	C160.958557,326.672180 160.065048,322.425018 159.613358,318.170990 
	C159.431732,316.460632 159.023895,313.961517 159.931732,313.101410 
	C162.598724,310.574707 165.628616,308.132782 168.960327,306.666046 
	C176.669418,303.272247 179.475098,293.471588 175.835419,285.679016 
	C173.840637,281.408142 172.313293,274.867676 174.215652,271.282104 
	C177.525970,265.042664 183.011444,259.419708 188.792480,255.187668 
	C194.027878,251.355042 199.178238,247.812805 202.304764,242.094009 
	C205.582336,236.098953 209.752426,230.208542 207.302048,222.358765 
	C202.587540,223.487930 198.143204,224.504974 193.725388,225.626450 
	C190.539841,226.435104 188.595261,225.591980 186.896103,222.481812 
	C185.471176,219.873611 182.872406,217.860733 180.628815,215.760010 
	C178.756332,214.006760 175.737610,212.907913 174.817749,210.818649 
	C172.476334,205.500793 166.294952,202.254089 166.641190,195.552963 
	C166.661713,195.155869 166.122803,194.731857 165.848907,194.317276 
	C163.018005,190.032379 160.059570,185.822250 157.464081,181.399170 
	C156.932251,180.492844 157.413162,178.594437 158.029495,177.489197 
	C159.661377,174.562943 159.331299,168.770691 157.009964,168.184708 
	C153.997589,167.424271 150.600296,166.359329 147.770645,167.056580 
	C140.125015,168.940628 133.526428,166.769226 126.865028,163.553452 
	C123.059738,161.716461 118.805099,163.156708 118.199493,166.974274 
	C117.562798,170.987808 115.845665,169.742111 113.824608,168.852646 
	C107.581528,166.105133 101.365189,163.296875 95.991714,160.893784 
	C95.991714,157.265259 95.991714,154.007446 95.991714,151.011856 
	C92.522820,151.011856 89.727638,150.893677 86.945587,151.034653 
	C79.471840,151.413391 71.733200,149.735046 64.650955,153.241425 
	C61.972839,154.567337 59.958706,154.770264 57.346794,153.131866 
	C56.155083,152.384323 53.812328,152.482056 52.481190,153.159027 
	C49.956688,154.442886 47.699326,156.317169 45.495239,158.144318 
	C43.873482,159.488724 41.813148,160.901459 41.172878,162.715866 
	C39.522331,167.393250 36.504200,169.979584 31.770464,170.881668 
	C31.171299,170.995850 30.477285,171.278900 30.086313,171.715637 
	C26.299219,175.946030 22.365391,180.070740 18.914062,184.564056 
	C17.419657,186.509628 15.851370,189.444138 16.238560,191.581253 
	C17.171814,196.732361 15.510402,200.851776 13.251348,205.130630 
	C12.304793,206.923508 11.752364,209.065414 11.591287,211.093948 
	C11.415968,213.301819 11.903034,215.562286 12.020512,216.888016 
	C14.502439,220.369492 17.573797,223.102127 18.613016,226.463089 
	C20.786259,233.491623 26.110155,237.032303 31.811750,240.252197 
	C33.558735,241.238770 36.102554,241.080612 38.265392,241.002335 
	C41.525299,240.884308 45.236149,239.207825 47.925148,240.278595 
	C53.370396,242.446915 57.431274,240.134155 61.872478,238.125854 
	C66.403244,236.077057 70.394211,236.404068 73.995049,240.376175 
	C75.190620,241.695023 77.489738,242.757919 79.240311,242.695847 
	C85.630295,242.469330 87.595436,244.432922 86.174019,250.677353 
	C84.816872,256.639404 83.878723,261.938629 89.862343,266.705902 
	C96.397766,271.912842 96.550812,280.588684 98.724037,288.041962 
	C98.946457,288.804810 97.957024,290.095673 97.266380,290.920990 
	C93.497116,295.425079 92.921402,304.916718 95.480186,310.406342 
	C98.017242,315.849426 99.889297,321.607361 101.957130,327.262207 
	C103.007614,330.134949 103.684296,333.149902 104.817993,335.985443 
	C106.801994,340.947693 108.731903,345.971222 111.273140,350.649261 
	C112.144867,352.254028 114.748512,353.750763 116.613663,353.817261 
	C121.107590,353.977448 125.632683,353.263641 131.010300,353.001526 
	C131.341843,351.867371 131.945496,350.736725 131.960236,349.598480 
	C132.048325,342.794373 131.998611,335.988495 131.999222,329.183228 
	C131.999756,323.207825 132.017334,317.232422 132.000412,311.257080 
	C131.996552,309.889648 132.235153,307.963196 129.249283,309.925232 
	C107.095039,304.219147 104.003128,291.436890 101.994179,275.017578 
	C101.993385,268.012299 101.992599,261.006989 102.071136,253.555069 
	C102.071136,253.555069 101.980400,253.110580 102.914597,253.000076 
	C125.221619,253.000076 147.528641,253.000076 170.009521,253.000076 
	C170.009521,258.447418 169.894257,263.245941 170.051910,268.035492 
	C170.149597,271.003632 170.661682,273.958130 170.983292,277.760193 
	C169.764069,286.878876 167.303574,295.715179 159.605438,301.348938 
	C154.669479,304.961243 148.542358,306.945892 142.361923,310.336121 
	C142.361923,321.696564 142.361923,333.057037 142.361923,344.417480 
	C142.594711,344.457367 142.827515,344.497253 143.060303,344.537140 
	C143.424957,343.709900 143.789597,342.882690 144.723495,341.705872 
M149.487076,261.012604 
	C136.206772,261.012604 122.926483,261.012604 109.478889,261.012604 
	C109.478889,267.079773 109.083450,272.543976 109.606651,277.918732 
	C110.009949,282.061707 110.792809,286.519043 112.761024,290.090302 
	C117.982574,299.564545 127.130020,301.188232 137.074493,301.089478 
	C155.096985,300.910461 163.979996,292.233002 163.989655,274.318176 
	C163.996841,261.008453 163.996857,261.008453 149.487076,261.012604 
M230.237930,238.245941 
	C229.022537,234.853012 227.807159,231.460083 226.575073,228.020523 
	C223.827759,228.020523 221.253250,227.628357 218.886856,228.160934 
	C217.355331,228.505615 215.427155,229.928528 214.876251,231.337357 
	C210.732147,241.934830 206.846893,252.634674 202.975754,263.336884 
	C202.059891,265.868835 201.504547,268.531219 200.697739,271.442627 
	C206.244263,272.255829 211.037750,273.518616 211.727600,266.309174 
	C211.790344,265.653381 212.753143,264.588440 213.343750,264.556366 
	C218.301971,264.287140 223.369644,263.617279 228.182190,264.412506 
	C229.832153,264.685150 230.843658,268.777863 232.170288,271.112030 
	C232.319427,271.374420 232.621689,271.549805 233.089584,271.986237 
	C233.852356,271.986237 234.842285,271.981842 235.832184,271.986969 
	C242.272278,272.020447 242.359451,271.841064 240.104935,265.619476 
	C236.889282,256.745575 233.746048,247.845444 230.237930,238.245941 
M418.516144,257.933411 
	C416.355591,251.705338 414.326721,245.426193 411.944794,239.283966 
	C411.325562,237.687149 409.029633,235.151688 408.484528,235.380798 
	C405.612305,236.587967 401.445160,234.456589 399.862152,239.413101 
	C396.815735,248.951782 393.101379,258.280334 389.547852,267.651978 
	C388.398590,270.682953 389.174591,272.415222 392.409241,271.861694 
	C394.211548,271.553253 396.583130,270.388550 397.323151,268.917816 
	C398.912292,265.759735 400.938385,264.532471 404.342194,264.944550 
	C406.142334,265.162537 408.067322,264.670105 409.791718,265.090271 
	C411.164886,265.424896 413.190094,266.462616 413.426636,267.522736 
	C414.752258,273.463837 418.730011,272.100342 423.363007,271.431030 
	C421.790405,266.938171 420.336456,262.784149 418.516144,257.933411 
M366.790466,243.492462 
	C370.128479,247.377640 374.263397,247.577667 378.854767,246.461594 
	C376.488708,236.453674 366.837524,233.471954 356.436554,235.255234 
	C347.043976,236.865601 342.773743,245.405106 343.968109,258.848389 
	C344.590820,265.857269 352.762756,272.024719 361.443970,272.037628 
	C371.955750,272.053253 377.600311,268.217651 378.550720,259.173828 
	C375.112305,260.292023 371.767212,260.653046 369.324432,262.329163 
	C364.587341,265.579498 359.003448,266.179901 355.261841,262.911652 
	C351.104279,259.280090 349.946289,252.029953 352.736084,247.097961 
	C355.369781,242.441895 360.313171,240.959473 366.790466,243.492462 
M251.016632,191.701035 
	C251.016632,200.621338 251.016632,209.541626 251.016632,218.331802 
	C257.423981,219.345871 257.910675,218.973755 257.980164,213.553848 
	C258.010437,211.191315 257.985260,208.828079 257.985260,206.465149 
	C258.613098,206.321884 259.240967,206.178619 259.868805,206.035355 
	C261.306213,208.654236 262.807007,211.240662 264.167725,213.898804 
	C266.932800,219.300385 268.634796,220.018295 274.691925,217.760742 
	C273.793427,216.020523 273.090790,214.210617 272.012878,212.661957 
	C269.482513,209.026581 268.480988,206.395111 272.535034,202.341171 
	C278.200470,196.675888 274.092010,187.345413 266.041046,186.616730 
	C261.820099,186.234711 257.479706,186.689499 253.253998,187.236053 
	C252.372345,187.350082 251.758057,189.531281 251.016632,191.701035 
M325.807678,195.218063 
	C323.523682,201.214340 321.110474,207.166565 319.041382,213.236099 
	C318.484711,214.869125 318.974426,216.858841 318.983795,218.684814 
	C321.028320,217.953293 323.732635,217.808456 324.998627,216.384674 
	C329.525879,211.293091 336.511597,211.634735 340.789673,217.148544 
	C341.733826,218.365402 344.476532,218.186783 346.391052,218.650742 
	C346.527069,217.223038 347.139160,215.634567 346.720337,214.394211 
	C344.340363,207.345734 341.361084,200.483200 339.285339,193.353714 
	C337.678955,187.836380 335.107361,185.157013 329.242279,187.088028 
	C328.935760,187.188919 328.640625,187.324219 328.223236,187.489944 
	C327.489258,189.761307 326.733276,192.100830 325.807678,195.218063 
M239.932770,340.605591 
	C240.810623,339.096161 241.688477,337.586700 242.566315,336.077240 
	C243.364014,337.639618 244.332687,339.142273 244.905670,340.783112 
	C245.369461,342.111267 245.357101,343.605682 245.555923,345.026367 
	C246.340820,344.953705 247.125717,344.881012 247.910614,344.808350 
	C247.602646,341.851776 247.806885,338.692078 246.751877,336.031769 
	C246.285172,334.854889 243.299088,334.555817 241.397385,334.113007 
	C240.182343,333.830109 238.852173,333.919434 237.585114,334.007385 
	C234.818054,334.199463 230.110886,333.754150 229.675079,334.896484 
	C228.544739,337.859161 229.295609,341.539581 229.295609,344.933502 
	C229.944992,344.966675 230.594376,344.999847 231.243759,345.033020 
	C231.476913,343.299225 231.475632,341.487823 232.015762,339.855591 
	C232.465469,338.496704 233.550858,337.348145 234.354645,336.106384 
	C235.220963,337.410095 236.387527,338.612366 236.871567,340.045227 
	C237.384933,341.564819 237.250076,343.303406 237.398331,344.946350 
	C237.962891,344.987427 238.527451,345.028503 239.092010,345.069580 
	C239.372482,343.866425 239.652954,342.663300 239.932770,340.605591 
M250.293243,336.371979 
	C250.139725,338.802399 249.986191,341.232788 249.730469,345.281006 
	C253.704315,344.523376 257.591400,344.772980 259.812958,342.970184 
	C261.054962,341.962311 260.542603,336.699371 259.009705,334.877869 
	C256.944183,332.423401 253.210266,332.035400 250.293243,336.371979 
M275.362915,344.976501 
	C279.319122,344.690979 282.923218,341.333405 282.783295,338.063629 
	C282.610077,334.015747 278.623138,330.016663 274.870758,330.126923 
	C271.324493,330.231201 268.165070,333.465515 268.066559,337.092468 
	C267.888153,343.661072 268.616547,344.550690 275.362915,344.976501 
M298.120270,338.615234 
	C297.404327,340.519104 296.688354,342.422974 295.972412,344.326843 
	C296.111176,344.866302 296.249939,345.405762 296.388702,345.945221 
	C300.400452,340.766785 304.294403,340.986206 308.274994,345.476746 
	C307.861053,342.341156 307.403931,339.967346 306.418152,337.838348 
	C305.337677,335.504883 303.769348,333.397308 302.413605,331.191284 
	C301.113281,333.439636 299.812958,335.687988 298.120270,338.615234 
M343.069031,338.021820 
	C342.958496,345.676636 345.697632,347.125793 355.562164,343.845917 
	C354.834076,340.445435 355.137787,335.073456 353.048828,333.876129 
	C350.597900,332.471405 345.175385,332.297943 343.069031,338.021820 
M226.912613,341.267181 
	C226.704498,337.891479 227.343384,333.832397 222.254532,333.641052 
	C218.569565,333.502533 215.721756,335.531525 215.135635,339.115967 
	C214.859512,340.804626 216.219452,344.120880 217.420486,344.428986 
	C220.663712,345.260895 224.679123,346.562775 226.912613,341.267181 
M390.006958,341.886841 
	C390.697449,347.167175 394.825409,344.852295 397.370667,344.701385 
	C398.647278,344.625702 400.548187,342.042053 400.792145,340.389679 
	C401.254028,337.260956 400.653961,333.852417 396.413940,333.590942 
	C391.725464,333.301819 389.750793,335.775848 390.006958,341.886841 
M381.934418,340.733307 
	C381.844971,340.873505 381.771667,341.030273 381.655579,341.143005 
	C381.623810,341.173828 381.401001,341.098663 381.371704,341.028137 
	C380.308105,338.468872 379.342377,335.863892 378.155823,333.363556 
	C377.765900,332.541962 376.808533,331.989624 376.110657,331.314148 
	C375.873138,332.251160 375.215851,333.325409 375.469635,334.101868 
	C376.674164,337.787201 378.127045,341.391388 379.474304,344.978760 
	C383.172302,344.397522 387.404022,336.784332 386.308746,330.712830 
	C384.862427,333.826080 383.416077,336.939331 381.934418,340.733307 
M364.954926,341.494568 
	C365.363464,342.607056 365.759125,343.725220 366.234039,344.808594 
	C366.250671,344.846558 367.433136,344.549561 367.437775,344.390259 
	C367.508179,341.964569 367.833344,339.455139 367.315826,337.140350 
	C367.040619,335.909515 365.351318,334.272675 364.144135,334.128662 
	C361.906097,333.861725 357.759003,334.121826 357.564606,334.925934 
	C356.795105,338.108368 357.248505,341.586456 357.248505,344.954926 
	C357.937286,344.979187 358.626068,345.003479 359.314850,345.027740 
	C359.522522,343.585663 359.507111,342.062286 359.995148,340.722321 
	C360.588104,339.094299 361.605591,337.620941 362.439453,336.080658 
	C363.278534,337.599121 364.117615,339.117584 364.954926,341.494568 
M207.366501,337.003296 
	C202.599686,337.883392 204.886139,333.037994 202.491058,330.720612 
	C202.491058,335.897644 202.491058,340.197906 202.491058,344.498169 
	C202.780899,344.536346 203.070740,344.574524 203.360580,344.612701 
	C203.765015,342.853790 204.169464,341.094879 204.569794,339.353882 
	C206.742966,339.353882 208.635941,339.353882 210.507797,339.353882 
	C210.923706,341.333130 211.265625,342.960327 211.607559,344.587494 
	C211.901505,344.551636 212.195435,344.515778 212.489380,344.479919 
	C212.489380,340.187592 212.489380,335.895233 212.489380,331.732971 
	C210.963120,333.593506 209.578156,335.281860 207.366501,337.003296 
M417.189972,344.367371 
	C417.439697,343.410950 417.689423,342.454498 417.939148,341.498108 
	C416.945709,341.605865 415.633514,341.346436 415.013580,341.884521 
	C412.216095,344.312531 411.515320,341.915314 411.062286,340.100220 
	C410.202484,336.655273 412.489868,335.708740 417.903931,336.817169 
	C417.075531,335.402100 415.522583,333.507141 414.651154,333.780975 
	C412.299408,334.519928 408.898773,335.747772 408.310638,337.559509 
	C406.499756,343.138031 408.985199,345.058044 417.189972,344.367371 
M333.911224,345.035187 
	C336.228577,344.796570 338.545929,344.557953 341.619965,344.241394 
	C338.785522,340.394470 332.213623,346.227417 333.010376,339.148438 
	C333.796753,332.161530 338.535950,339.639496 340.919250,337.309174 
	C339.153534,332.013733 334.776917,334.729034 331.238098,333.868378 
	C330.744049,337.976715 327.980225,342.033813 333.911224,345.035187 
M284.490845,333.107727 
	C284.847382,337.077820 285.203918,341.047943 285.560455,345.018066 
	C286.164124,344.993713 286.767761,344.969360 287.371429,344.945007 
	C288.013885,339.832703 288.656342,334.720398 289.298798,329.608093 
	C288.850647,329.275665 288.402496,328.943237 287.954346,328.610809 
	C286.901154,329.864166 285.847961,331.117493 284.490845,333.107727 
M314.983093,331.031677 
	C314.633728,328.366608 313.606689,328.325470 311.966217,330.202179 
	C309.680603,332.816833 310.171204,342.019470 313.466370,345.520264 
	C313.934174,340.506439 314.344727,336.106476 314.983093,331.031677 
z"/>
<path fill="#2F4042" opacity="1.000000" stroke="none" 
	d="
M142.949188,309.660156 
	C148.542358,306.945892 154.669479,304.961243 159.605438,301.348938 
	C167.303574,295.715179 169.764069,286.878876 170.985901,276.876099 
	C170.988495,268.074432 170.988495,260.156891 170.988495,252.010025 
	C148.133270,252.010025 126.004807,252.000885 103.876511,252.056183 
	C103.243599,252.057755 102.612396,252.743729 101.980400,253.110580 
	C101.980400,253.110580 102.071136,253.555069 101.728500,254.067139 
	C101.572411,261.701294 101.758957,268.823364 101.945496,275.945465 
	C104.003128,291.436890 107.095039,304.219147 130.016037,310.174072 
	C130.858231,323.499481 130.954468,336.576080 130.970886,349.652771 
	C130.972244,350.735596 130.433167,351.819122 130.145203,352.902313 
	C125.632683,353.263641 121.107590,353.977448 116.613663,353.817261 
	C114.748512,353.750763 112.144867,352.254028 111.273140,350.649261 
	C108.731903,345.971222 106.801994,340.947693 104.817993,335.985443 
	C103.684296,333.149902 103.007614,330.134949 101.957130,327.262207 
	C99.889297,321.607361 98.017242,315.849426 95.480186,310.406342 
	C92.921402,304.916718 93.497116,295.425079 97.266380,290.920990 
	C97.957024,290.095673 98.946457,288.804810 98.724037,288.041962 
	C96.550812,280.588684 96.397766,271.912842 89.862343,266.705902 
	C83.878723,261.938629 84.816872,256.639404 86.174019,250.677353 
	C87.595436,244.432922 85.630295,242.469330 79.240311,242.695847 
	C77.489738,242.757919 75.190620,241.695023 73.995049,240.376175 
	C70.394211,236.404068 66.403244,236.077057 61.872478,238.125854 
	C57.431274,240.134155 53.370396,242.446915 47.925148,240.278595 
	C45.236149,239.207825 41.525299,240.884308 38.265392,241.002335 
	C36.102554,241.080612 33.558735,241.238770 31.811750,240.252197 
	C26.110155,237.032303 20.786259,233.491623 18.613016,226.463089 
	C17.573797,223.102127 14.502439,220.369492 12.020512,216.888016 
	C11.903034,215.562286 11.415968,213.301819 11.591287,211.093948 
	C11.752364,209.065414 12.304793,206.923508 13.251348,205.130630 
	C15.510402,200.851776 17.171814,196.732361 16.238560,191.581253 
	C15.851370,189.444138 17.419657,186.509628 18.914062,184.564056 
	C22.365391,180.070740 26.299219,175.946030 30.086313,171.715637 
	C30.477285,171.278900 31.171299,170.995850 31.770464,170.881668 
	C36.504200,169.979584 39.522331,167.393250 41.172878,162.715866 
	C41.813148,160.901459 43.873482,159.488724 45.495239,158.144318 
	C47.699326,156.317169 49.956688,154.442886 52.481190,153.159027 
	C53.812328,152.482056 56.155083,152.384323 57.346794,153.131866 
	C59.958706,154.770264 61.972839,154.567337 64.650955,153.241425 
	C71.733200,149.735046 79.471840,151.413391 86.945587,151.034653 
	C89.727638,150.893677 92.522820,151.011856 95.991714,151.011856 
	C95.991714,154.007446 95.991714,157.265259 95.991714,160.893784 
	C101.365189,163.296875 107.581528,166.105133 113.824608,168.852646 
	C115.845665,169.742111 117.562798,170.987808 118.199493,166.974274 
	C118.805099,163.156708 123.059738,161.716461 126.865028,163.553452 
	C133.526428,166.769226 140.125015,168.940628 147.770645,167.056580 
	C150.600296,166.359329 153.997589,167.424271 157.009964,168.184708 
	C159.331299,168.770691 159.661377,174.562943 158.029495,177.489197 
	C157.413162,178.594437 156.932251,180.492844 157.464081,181.399170 
	C160.059570,185.822250 163.018005,190.032379 165.848907,194.317276 
	C166.122803,194.731857 166.661713,195.155869 166.641190,195.552963 
	C166.294952,202.254089 172.476334,205.500793 174.817749,210.818649 
	C175.737610,212.907913 178.756332,214.006760 180.628815,215.760010 
	C182.872406,217.860733 185.471176,219.873611 186.896103,222.481812 
	C188.595261,225.591980 190.539841,226.435104 193.725388,225.626450 
	C198.143204,224.504974 202.587540,223.487930 207.302048,222.358765 
	C209.752426,230.208542 205.582336,236.098953 202.304764,242.094009 
	C199.178238,247.812805 194.027878,251.355042 188.792480,255.187668 
	C183.011444,259.419708 177.525970,265.042664 174.215652,271.282104 
	C172.313293,274.867676 173.840637,281.408142 175.835419,285.679016 
	C179.475098,293.471588 176.669418,303.272247 168.960327,306.666046 
	C165.628616,308.132782 162.598724,310.574707 159.931732,313.101410 
	C159.023895,313.961517 159.431732,316.460632 159.613358,318.170990 
	C160.065048,322.425018 160.958557,326.672180 154.739990,327.568512 
	C153.771011,327.708160 152.306107,329.368103 152.291000,330.343933 
	C152.205505,335.860443 148.935577,339.051361 144.131165,341.584747 
	C143.342285,330.862457 143.145737,320.261322 142.949188,309.660156 
M164.620895,235.518875 
	C164.750153,231.055328 165.052048,226.588104 164.957626,222.129303 
	C164.871948,218.083252 164.354721,214.046326 163.392242,209.764618 
	C162.027802,209.142059 160.663361,208.519501 158.685638,207.617111 
	C158.685638,213.714432 158.685638,219.116928 158.685638,224.912643 
	C155.784149,224.912643 153.332382,224.912643 150.979233,223.991257 
	C150.985092,219.863998 151.106216,215.732834 150.966858,211.610474 
	C150.802490,206.748947 150.412689,201.895050 149.384201,197.056427 
	C144.003036,194.035309 141.062119,195.703491 141.007141,201.929581 
	C140.937744,209.791534 140.990387,217.654572 140.990387,225.928085 
	C138.133774,225.928085 136.021240,225.928085 134.002548,225.004395 
	C134.000977,217.107971 134.054291,209.210800 133.948059,201.315781 
	C133.928574,199.867371 133.261032,198.427704 132.312851,196.764923 
	C129.803040,193.187485 127.469414,195.392609 124.377563,197.432968 
	C124.287369,206.918457 124.197174,216.403946 123.206100,225.953705 
	C121.296844,225.953705 119.387596,225.953705 116.916916,225.953705 
	C116.916916,219.329910 116.916916,213.467804 116.916916,207.332520 
	C114.857704,208.030579 113.399239,208.524994 111.316612,209.588608 
	C111.211800,216.063568 111.011757,222.539139 111.052780,229.013168 
	C111.067543,231.342789 111.662247,233.668716 112.710373,235.963516 
	C113.185272,236.017166 113.660172,236.070816 114.752083,236.639359 
	C130.624527,236.730789 146.496948,236.831970 162.369537,236.872589 
	C162.918076,236.873993 163.468140,236.269928 164.018890,236.028564 
	C164.018890,236.028564 163.938736,236.036209 164.620895,235.518875 
M164.001144,245.265182 
	C164.001831,244.183228 164.002533,243.101273 163.482407,241.348419 
	C146.528885,241.249863 129.575394,241.142334 112.621735,241.093628 
	C112.081284,241.092072 111.539101,241.694748 110.998657,242.829071 
	C111.007637,243.914444 111.016617,244.999832 111.495621,246.801575 
	C128.298080,246.868439 145.100525,246.946426 161.903046,246.962677 
	C162.595016,246.963348 163.287552,246.384949 164.001144,245.265182 
z"/>
<path fill="#324143" opacity="1.000000" stroke="none" 
	d="
M149.984070,261.012512 
	C163.996857,261.008453 163.996841,261.008453 163.989655,274.318176 
	C163.979996,292.233002 155.096985,300.910461 137.074493,301.089478 
	C127.130020,301.188232 117.982574,299.564545 112.761024,290.090302 
	C110.792809,286.519043 110.009949,282.061707 109.606651,277.918732 
	C109.083450,272.543976 109.478889,267.079773 109.478889,261.012604 
	C122.926483,261.012604 136.206772,261.012604 149.984070,261.012512 
M114.407951,265.518768 
	C114.271996,271.330536 113.898499,277.153198 114.164001,282.946564 
	C114.231956,284.429230 116.320206,285.819275 117.480278,287.251892 
	C117.981949,286.949158 118.483627,286.646423 118.985298,286.343689 
	C118.985298,283.545532 119.090714,280.742493 118.962509,277.950226 
	C118.723816,272.751678 119.009132,272.491943 124.990334,273.854919 
	C124.990334,279.528534 125.079376,285.328766 124.952805,291.124268 
	C124.889404,294.027466 125.112885,296.725555 128.711517,296.804779 
	C132.589264,296.890137 133.057724,294.025848 133.029587,290.922180 
	C132.977173,285.140137 133.014557,279.357269 133.014557,273.341919 
	C135.236191,273.341919 136.801788,273.341919 138.988342,273.341919 
	C138.988342,275.421295 138.987656,277.205963 138.988480,278.990631 
	C138.990601,283.656433 138.851105,288.329712 139.094696,292.982910 
	C139.156570,294.164764 140.205246,295.676331 141.242081,296.288635 
	C141.907852,296.681793 143.837311,296.041595 144.397110,295.276733 
	C145.552689,293.697845 146.772598,291.765350 146.894806,289.907806 
	C147.229752,284.816101 147.010269,279.687958 147.010269,274.343201 
	C149.241562,274.343201 150.807144,274.343201 152.961945,274.343201 
	C152.961945,278.544647 152.961945,282.466858 152.961945,286.389069 
	C153.440689,286.664825 153.919449,286.940582 154.398193,287.216339 
	C155.565811,286.006958 157.720688,284.808624 157.734329,283.586365 
	C157.802246,277.500519 157.306915,271.408386 156.535934,264.593506 
	C142.954086,264.499939 129.372269,264.402893 115.790306,264.339844 
	C115.543816,264.338715 115.295448,264.742310 114.407951,265.518768 
z"/>
<path fill="#273638" opacity="1.000000" stroke="none" 
	d="
M230.404907,238.601227 
	C233.746048,247.845444 236.889282,256.745575 240.104935,265.619476 
	C242.359451,271.841064 242.272278,272.020447 235.832184,271.986969 
	C234.842285,271.981842 233.852356,271.986237 233.089584,271.986237 
	C232.621689,271.549805 232.319427,271.374420 232.170288,271.112030 
	C230.843658,268.777863 229.832153,264.685150 228.182190,264.412506 
	C223.369644,263.617279 218.301971,264.287140 213.343750,264.556366 
	C212.753143,264.588440 211.790344,265.653381 211.727600,266.309174 
	C211.037750,273.518616 206.244263,272.255829 200.697739,271.442627 
	C201.504547,268.531219 202.059891,265.868835 202.975754,263.336884 
	C206.846893,252.634674 210.732147,241.934830 214.876251,231.337357 
	C215.427155,229.928528 217.355331,228.505615 218.886856,228.160934 
	C221.253250,227.628357 223.827759,228.020523 226.575073,228.020523 
	C227.807159,231.460083 229.022537,234.853012 230.404907,238.601227 
M216.871078,252.023239 
	C216.639847,253.365433 216.408600,254.707642 216.177353,256.049835 
	C219.430084,256.438477 222.682816,256.827148 227.012253,257.344452 
	C224.855713,250.801926 223.138870,245.593384 221.056213,239.275024 
	C219.411133,244.171616 218.214981,247.731979 216.871078,252.023239 
z"/>
<path fill="#293839" opacity="1.000000" stroke="none" 
	d="
M471.945740,299.930389 
	C471.332397,303.756317 471.597656,308.025391 469.934937,311.322052 
	C465.583008,319.950623 458.882751,322.137360 448.535217,320.602051 
	C438.011963,319.040649 434.567810,312.235138 434.018463,305.631836 
	C433.063812,294.155945 437.655182,286.278625 446.645599,283.649445 
	C455.145813,281.163666 467.537262,284.074554 469.947723,294.255249 
	C466.458893,295.201294 463.118439,296.018188 459.882904,293.399567 
	C454.654907,289.168427 449.128937,289.281860 444.837280,293.678558 
	C441.039429,297.569366 441.030518,305.902039 444.819794,310.056030 
	C450.974304,316.802948 459.793610,315.097992 463.279602,305.955139 
	C459.329224,305.955139 455.574646,305.955139 451.402954,305.499115 
	C450.985840,303.450287 450.985840,301.857452 450.985840,299.930389 
	C458.329865,299.930389 465.137817,299.930389 471.945740,299.930389 
z"/>
<path fill="#263637" opacity="1.000000" stroke="none" 
	d="
M292.167847,283.957733 
	C297.633667,283.805145 303.107269,283.399323 308.563202,283.567200 
	C314.716187,283.756561 320.110321,286.812378 319.788391,293.899078 
	C319.671570,296.471008 317.373413,298.943787 316.103027,301.399109 
	C317.493713,304.139221 319.671265,307.008759 320.410858,310.210449 
	C321.603912,315.375336 317.175629,320.257568 311.274445,320.617126 
	C305.160309,320.989624 299.016998,320.883759 292.460083,320.507874 
	C292.078461,308.004944 292.123169,295.981354 292.167847,283.957733 
M308.857269,313.565430 
	C313.420135,311.321991 314.102203,309.510254 310.295044,306.661194 
	C308.181030,305.079163 304.488342,305.360596 301.515472,305.401611 
	C300.986664,305.408905 300.115479,308.345459 300.060852,309.951813 
	C299.870392,315.548584 301.467438,316.278503 308.857269,313.565430 
M306.067047,289.997223 
	C299.342834,290.049805 298.766937,290.980499 300.824829,298.784302 
	C304.898712,299.010315 309.293518,299.503784 311.481628,295.113037 
	C311.855927,294.362030 308.528564,291.766266 306.067047,289.997223 
z"/>
<path fill="#263637" opacity="1.000000" stroke="none" 
	d="
M350.041260,284.002258 
	C354.297546,283.865265 356.921997,286.342438 358.388092,289.881287 
	C360.213715,294.287872 359.182587,298.298737 355.159393,301.552460 
	C356.464325,302.968384 357.885681,304.084076 358.758667,305.530701 
	C362.835602,312.286652 358.797699,320.090057 350.739716,320.669403 
	C344.799377,321.096497 338.813171,320.885162 332.415466,320.469299 
	C331.983521,308.127472 331.983521,296.274689 331.983521,284.002258 
	C338.510132,284.002258 344.275696,284.002258 350.041260,284.002258 
M346.899567,305.022705 
	C345.582550,305.015350 344.199158,304.751038 342.966217,305.069305 
	C341.596436,305.422913 339.333984,306.210083 339.260864,306.979492 
	C339.023346,309.480072 338.911713,312.455292 340.072479,314.496704 
	C341.249847,316.567413 349.884399,314.465576 351.231110,311.922485 
	C353.204224,308.196533 350.339783,306.661407 346.899567,305.022705 
M338.996094,295.375732 
	C338.579132,299.740845 341.817322,299.517639 344.196259,298.808411 
	C346.742004,298.049469 351.240509,299.227875 350.871155,294.180450 
	C350.568909,290.050507 347.465057,290.064087 344.376251,289.960602 
	C341.124359,289.851654 338.223572,289.915070 338.996094,295.375732 
z"/>
<path fill="#273638" opacity="1.000000" stroke="none" 
	d="
M206.182709,283.943298 
	C210.982346,283.798218 215.783737,283.493469 220.581238,283.545593 
	C227.715302,283.623077 235.550446,287.954681 237.813446,295.796631 
	C240.590439,305.419617 237.671661,313.595581 230.577072,317.862610 
	C223.015900,322.410217 214.840607,320.428711 206.459686,320.506165 
	C206.080322,308.004395 206.131516,295.973846 206.182709,283.943298 
M213.989990,295.661743 
	C213.989990,301.577942 213.989990,307.494141 213.989990,313.156891 
	C223.112671,315.984894 230.149048,310.102600 230.964890,304.139465 
	C231.841843,297.729645 225.872391,290.628815 219.213501,289.991974 
	C215.661011,289.652222 213.241013,290.378723 213.989990,295.661743 
z"/>
<path fill="#253536" opacity="1.000000" stroke="none" 
	d="
M213.821228,205.725632 
	C214.875336,208.995651 216.696091,211.153030 220.548141,210.969955 
	C225.028107,210.757034 228.654343,209.490280 229.954529,203.799164 
	C230.049088,194.631912 230.112854,186.293961 230.176620,177.956024 
	C232.152618,177.952148 234.128616,177.948257 236.929352,178.153854 
	C237.841187,187.218536 237.928284,196.073746 238.015381,204.928955 
	C237.908936,213.347626 233.250977,217.844040 223.774979,218.675491 
	C212.753601,219.642548 207.395950,215.955139 204.984894,204.871155 
	C205.064880,195.329269 205.121063,186.642975 205.177231,177.956696 
	C207.222183,177.673492 209.267120,177.390289 211.805084,177.487549 
	C212.537811,181.931168 212.792694,185.993484 213.013428,190.057648 
	C213.297028,195.279541 213.553223,200.502899 213.821228,205.725632 
z"/>
<path fill="#273638" opacity="1.000000" stroke="none" 
	d="
M397.859772,320.111816 
	C395.412689,320.426636 392.456573,323.238617 391.303192,318.005676 
	C391.720001,306.244415 391.829956,295.190094 391.939880,284.135803 
	C397.338593,282.728210 400.640900,284.956360 403.369293,289.685364 
	C406.565033,295.224396 410.572266,300.295227 414.549683,306.071838 
	C415.084198,306.734467 415.283844,306.919556 415.517517,307.037018 
	C415.577057,307.066956 415.846283,306.884125 415.847717,306.796326 
	C415.969818,299.174866 416.075104,291.553101 416.181549,283.931366 
	C417.840759,283.934814 419.500000,283.938263 421.972961,284.153687 
	C422.860291,294.467102 422.983704,304.568634 422.966400,314.669922 
	C422.962830,316.745453 422.433594,318.820099 422.146698,320.895142 
	C416.694946,322.008270 413.258667,319.826233 410.601288,314.939758 
	C407.573883,309.372803 403.744110,304.242188 400.127136,298.237915 
	C397.172729,295.684753 398.090179,298.435059 398.071594,299.296265 
	C397.921783,306.233063 397.912201,313.172913 397.859772,320.111816 
z"/>
<path fill="#263637" opacity="1.000000" stroke="none" 
	d="
M463.891724,271.087067 
	C459.582397,272.991333 456.533234,272.047028 454.022583,267.754547 
	C450.396759,261.555542 446.209229,255.685089 442.076111,249.018768 
	C441.266113,249.142120 440.121460,249.906143 440.098419,250.702637 
	C439.903809,257.423065 439.914185,264.149414 439.434113,270.924072 
	C437.438385,270.885132 435.871552,270.796051 433.971191,270.688019 
	C433.971191,258.453918 433.971191,246.744293 433.971191,235.034668 
	C438.726410,234.144333 441.795624,235.749100 444.330841,240.186646 
	C447.802795,246.263779 452.258453,251.778946 456.847626,257.843323 
	C457.601013,250.439987 457.799255,242.728348 457.997498,235.016693 
	C459.714600,234.993713 461.431702,234.970749 463.553162,235.448196 
	C463.935577,247.661423 463.913635,259.374237 463.891724,271.087067 
z"/>
<path fill="#273638" opacity="1.000000" stroke="none" 
	d="
M287.155945,235.919235 
	C292.283752,235.780807 297.414948,235.717209 302.538361,235.482849 
	C307.648682,235.249130 312.970459,239.773651 313.879578,245.298935 
	C314.711639,250.355835 311.445770,255.387955 305.775360,257.013000 
	C308.339172,261.677002 310.845642,266.236694 313.437347,270.951416 
	C306.005249,272.965851 304.660889,272.277893 301.303192,266.043945 
	C299.744354,263.149841 297.862549,260.429657 296.127167,257.630615 
	C295.404633,257.811005 294.682098,257.991394 293.959564,258.171783 
	C293.959564,262.162323 293.959564,266.152863 293.499146,270.583130 
	C291.132202,270.935974 289.225616,270.849060 287.155945,270.754700 
	C287.155945,258.750885 287.155945,247.335052 287.155945,235.919235 
M300.894501,241.774506 
	C298.795624,241.915222 296.696747,242.055939 294.430908,242.207870 
	C294.430908,245.602402 294.430908,248.610703 294.430908,253.256973 
	C298.839050,251.207199 302.331970,249.583023 305.824860,247.958817 
	C304.406891,245.999283 302.988892,244.039749 300.894501,241.774506 
z"/>
<path fill="#293839" opacity="1.000000" stroke="none" 
	d="
M418.699310,258.281799 
	C420.336456,262.784149 421.790405,266.938171 423.363007,271.431030 
	C418.730011,272.100342 414.752258,273.463837 413.426636,267.522736 
	C413.190094,266.462616 411.164886,265.424896 409.791718,265.090271 
	C408.067322,264.670105 406.142334,265.162537 404.342194,264.944550 
	C400.938385,264.532471 398.912292,265.759735 397.323151,268.917816 
	C396.583130,270.388550 394.211548,271.553253 392.409241,271.861694 
	C389.174591,272.415222 388.398590,270.682953 389.547852,267.651978 
	C393.101379,258.280334 396.815735,248.951782 399.862152,239.413101 
	C401.445160,234.456589 405.612305,236.587967 408.484528,235.380798 
	C409.029633,235.151688 411.325562,237.687149 411.944794,239.283966 
	C414.326721,245.426193 416.355591,251.705338 418.699310,258.281799 
M404.139801,258.992554 
	C405.897614,258.992554 407.655426,258.992554 410.657867,258.992554 
	C408.942657,254.265106 407.566956,250.473373 405.845856,245.729660 
	C404.276581,249.798996 402.957092,252.755493 402.067505,255.836151 
	C401.828339,256.664551 402.896820,257.870575 404.139801,258.992554 
z"/>
<path fill="#293839" opacity="1.000000" stroke="none" 
	d="
M366.445770,243.291260 
	C360.313171,240.959473 355.369781,242.441895 352.736084,247.097961 
	C349.946289,252.029953 351.104279,259.280090 355.261841,262.911652 
	C359.003448,266.179901 364.587341,265.579498 369.324432,262.329163 
	C371.767212,260.653046 375.112305,260.292023 378.550720,259.173828 
	C377.600311,268.217651 371.955750,272.053253 361.443970,272.037628 
	C352.762756,272.024719 344.590820,265.857269 343.968109,258.848389 
	C342.773743,245.405106 347.043976,236.865601 356.436554,235.255234 
	C366.837524,233.471954 376.488708,236.453674 378.854767,246.461594 
	C374.263397,247.577667 370.128479,247.377640 366.445770,243.291260 
z"/>
<path fill="#253536" opacity="1.000000" stroke="none" 
	d="
M278.992493,310.073303 
	C277.458801,317.720428 271.406891,321.696930 262.400665,320.975189 
	C254.636963,320.353058 250.814713,317.240509 249.997940,310.001648 
	C249.987976,300.796295 249.965561,292.454590 249.943146,284.112885 
	C256.991302,283.884094 256.991760,283.884094 256.996552,290.802887 
	C257.000000,295.756104 257.039307,300.709686 256.992432,305.662415 
	C256.956879,309.420715 257.880402,312.697144 261.934906,313.727844 
	C265.875610,314.729553 269.055786,313.400635 271.312805,308.936829 
	C271.869659,300.189270 272.024597,292.067139 272.179565,283.945007 
	C273.820679,283.945709 275.461792,283.946411 277.908691,284.164734 
	C278.807159,292.946014 278.899841,301.509674 278.992493,310.073303 
z"/>
<path fill="#273638" opacity="1.000000" stroke="none" 
	d="
M285.940125,187.129608 
	C290.710938,186.805008 295.548553,185.872818 300.227051,186.387482 
	C302.960571,186.688187 306.265717,188.728973 307.840759,191.005844 
	C310.233368,194.464554 309.786438,198.572464 306.042603,201.785278 
	C307.016663,203.104797 307.995667,204.204514 308.720154,205.452011 
	C311.674255,210.538513 309.795227,216.493317 304.101135,217.674133 
	C298.512390,218.833069 292.629883,218.575348 286.425354,218.444855 
	C285.963013,207.676788 285.951538,197.403214 285.940125,187.129608 
M300.318787,212.194824 
	C300.903107,210.705124 302.259918,209.010681 301.929352,207.763474 
	C300.863525,203.742188 297.228882,204.972015 294.505920,205.183044 
	C293.592682,205.253830 292.235992,207.195389 292.102448,208.395401 
	C291.577057,213.117020 292.450073,213.534698 300.318787,212.194824 
M302.222565,194.900223 
	C299.593811,193.945435 297.009064,192.759827 294.296875,192.242569 
	C293.791748,192.146240 292.250763,194.698044 292.151245,196.096268 
	C292.063904,197.323059 293.480743,199.803589 293.970459,199.738968 
	C297.185150,199.314865 301.189240,200.024170 302.222565,194.900223 
z"/>
<path fill="#273638" opacity="1.000000" stroke="none" 
	d="
M357.159607,186.954803 
	C362.407837,185.556747 365.152924,188.214966 367.538055,192.586105 
	C370.011780,197.119553 373.301361,201.207779 376.234131,205.490738 
	C376.827606,205.453110 377.421051,205.415497 378.014526,205.377884 
	C378.014526,200.601242 378.093292,195.822830 377.986145,191.048599 
	C377.917389,187.983505 378.445984,185.665054 382.815704,186.454956 
	C383.360931,197.172836 383.360931,207.477020 383.360931,217.981476 
	C381.259460,217.981476 379.126923,217.981476 376.994385,217.981476 
	C372.969635,211.892502 368.944855,205.803543 364.821167,199.031830 
	C364.156647,198.837509 363.108459,199.316849 363.099060,199.815750 
	C362.985626,205.843567 363.025574,211.874283 363.025574,217.785583 
	C360.643219,217.785583 359.042755,217.785583 357.159607,217.785583 
	C357.159607,207.359146 357.159607,197.156967 357.159607,186.954803 
z"/>
<path fill="#273638" opacity="1.000000" stroke="none" 
	d="
M251.018585,191.230438 
	C251.758057,189.531281 252.372345,187.350082 253.253998,187.236053 
	C257.479706,186.689499 261.820099,186.234711 266.041046,186.616730 
	C274.092010,187.345413 278.200470,196.675888 272.535034,202.341171 
	C268.480988,206.395111 269.482513,209.026581 272.012878,212.661957 
	C273.090790,214.210617 273.793427,216.020523 274.691925,217.760742 
	C268.634796,220.018295 266.932800,219.300385 264.167725,213.898804 
	C262.807007,211.240662 261.306213,208.654236 259.868805,206.035355 
	C259.240967,206.178619 258.613098,206.321884 257.985260,206.465149 
	C257.985260,208.828079 258.010437,211.191315 257.980164,213.553848 
	C257.910675,218.973755 257.423981,219.345871 251.016632,218.331802 
	C251.016632,209.541626 251.016632,200.621338 251.018585,191.230438 
M258.003571,194.729691 
	C258.691986,196.801224 259.380371,198.872772 260.068756,200.944290 
	C262.582886,200.107635 265.247894,199.523605 267.469360,198.196884 
	C267.860229,197.963440 266.673981,193.179184 265.730988,192.996201 
	C263.322876,192.528900 260.640930,193.472763 258.003571,194.729691 
z"/>
<path fill="#293839" opacity="1.000000" stroke="none" 
	d="
M325.892487,194.829208 
	C326.733276,192.100830 327.489258,189.761307 328.223236,187.489944 
	C328.640625,187.324219 328.935760,187.188919 329.242279,187.088028 
	C335.107361,185.157013 337.678955,187.836380 339.285339,193.353714 
	C341.361084,200.483200 344.340363,207.345734 346.720337,214.394211 
	C347.139160,215.634567 346.527069,217.223038 346.391052,218.650742 
	C344.476532,218.186783 341.733826,218.365402 340.789673,217.148544 
	C336.511597,211.634735 329.525879,211.293091 324.998627,216.384674 
	C323.732635,217.808456 321.028320,217.953293 318.983795,218.684814 
	C318.974426,216.858841 318.484711,214.869125 319.041382,213.236099 
	C321.110474,207.166565 323.523682,201.214340 325.892487,194.829208 
M331.731537,207.011887 
	C333.036224,206.604309 335.503510,205.992279 335.473114,205.819489 
	C334.920776,202.678497 334.068024,199.590332 333.279266,196.490921 
	C331.214325,199.211319 330.164917,201.604706 329.584991,204.106918 
	C329.397858,204.914398 330.445129,206.007980 331.731537,207.011887 
z"/>
<path fill="#253536" opacity="1.000000" stroke="none" 
	d="
M254.164948,235.921860 
	C261.443512,235.921860 268.722046,235.921860 276.019745,235.921860 
	C277.698273,240.834763 277.070038,241.853546 272.152557,241.985031 
	C270.161530,242.038269 268.154602,242.142838 266.178406,241.964203 
	C262.570770,241.638046 260.799438,242.489914 260.846619,246.771194 
	C260.894501,251.112930 263.159424,251.209473 266.215942,251.005646 
	C267.043335,250.950455 267.927460,251.109650 268.692108,250.871017 
	C270.843597,250.199539 272.700378,249.899475 272.953735,252.965439 
	C273.173492,255.624695 272.053864,256.829559 269.266479,257.040863 
	C260.995209,257.667969 261.003204,257.758728 260.992767,266.158630 
	C260.991119,267.486847 260.974670,268.815063 260.501892,270.580994 
	C258.132935,270.932800 256.227173,270.846924 254.164948,270.753967 
	C254.164948,258.747986 254.164948,247.334915 254.164948,235.921860 
z"/>
<path fill="#253536" opacity="1.000000" stroke="none" 
	d="
M377.860168,320.072083 
	C375.827484,320.434814 373.794830,320.797516 371.035492,321.289917 
	C371.035492,308.622650 371.035492,296.739288 371.504517,284.414764 
	C373.878662,284.061401 375.783813,284.149231 377.860168,284.244934 
	C377.860168,296.584930 377.860168,308.328522 377.860168,320.072083 
z"/>
<path fill="#253536" opacity="1.000000" stroke="none" 
	d="
M331.879181,271.091766 
	C330.147308,271.377563 328.415436,271.663361 326.327087,271.457275 
	C325.979645,260.673157 325.881592,250.378464 326.122589,240.091705 
	C326.155609,238.682999 327.653992,236.396317 328.859192,236.103851 
	C332.067841,235.325165 332.013580,237.986618 332.004059,240.219101 
	C331.960205,250.509995 331.920441,260.800873 331.879181,271.091766 
z"/>
<path fill="#424A4B" opacity="1.000000" stroke="none" 
	d="
M239.933105,341.032867 
	C239.652954,342.663300 239.372482,343.866425 239.092010,345.069580 
	C238.527451,345.028503 237.962891,344.987427 237.398331,344.946350 
	C237.250076,343.303406 237.384933,341.564819 236.871567,340.045227 
	C236.387527,338.612366 235.220963,337.410095 234.354645,336.106384 
	C233.550858,337.348145 232.465469,338.496704 232.015762,339.855591 
	C231.475632,341.487823 231.476913,343.299225 231.243759,345.033020 
	C230.594376,344.999847 229.944992,344.966675 229.295609,344.933502 
	C229.295609,341.539581 228.544739,337.859161 229.675079,334.896484 
	C230.110886,333.754150 234.818054,334.199463 237.585114,334.007385 
	C238.852173,333.919434 240.182343,333.830109 241.397385,334.113007 
	C243.299088,334.555817 246.285172,334.854889 246.751877,336.031769 
	C247.806885,338.692078 247.602646,341.851776 247.910614,344.808350 
	C247.125717,344.881012 246.340820,344.953705 245.555923,345.026367 
	C245.357101,343.605682 245.369461,342.111267 244.905670,340.783112 
	C244.332687,339.142273 243.364014,337.639618 242.566315,336.077240 
	C241.688477,337.586700 240.810623,339.096161 239.933105,341.032867 
z"/>
<path fill="#424A4B" opacity="1.000000" stroke="none" 
	d="
M431.999512,340.967468 
	C429.863647,342.299774 427.879211,344.161438 425.552582,344.826996 
	C422.803345,345.613403 420.206635,344.458740 419.938843,341.081940 
	C419.642456,337.344849 420.880951,333.643311 424.829041,333.230286 
	C426.724060,333.032074 429.043915,335.842163 430.961029,337.528992 
	C431.561493,338.057343 431.475281,339.366180 431.833069,340.651306 
	C431.962769,340.984894 431.999542,340.967499 431.999512,340.967468 
z"/>
<path fill="#424A4B" opacity="1.000000" stroke="none" 
	d="
M250.564148,336.062866 
	C253.210266,332.035400 256.944183,332.423401 259.009705,334.877869 
	C260.542603,336.699371 261.054962,341.962311 259.812958,342.970184 
	C257.591400,344.772980 253.704315,344.523376 249.730469,345.281006 
	C249.986191,341.232788 250.139725,338.802399 250.564148,336.062866 
z"/>
<path fill="#424A4B" opacity="1.000000" stroke="none" 
	d="
M274.941467,344.975525 
	C268.616547,344.550690 267.888153,343.661072 268.066559,337.092468 
	C268.165070,333.465515 271.324493,330.231201 274.870758,330.126923 
	C278.623138,330.016663 282.610077,334.015747 282.783295,338.063629 
	C282.923218,341.333405 279.319122,344.690979 274.941467,344.975525 
M270.934662,338.501526 
	C270.762878,341.320892 272.413422,343.348358 274.852844,342.702545 
	C276.834412,342.177979 279.486237,339.870880 279.663361,338.132477 
	C279.821198,336.583344 276.994171,334.730072 275.484406,333.011017 
	C273.971344,334.569061 272.458282,336.127106 270.934662,338.501526 
z"/>
<path fill="#424A4B" opacity="1.000000" stroke="none" 
	d="
M298.316467,338.275787 
	C299.812958,335.687988 301.113281,333.439636 302.413605,331.191284 
	C303.769348,333.397308 305.337677,335.504883 306.418152,337.838348 
	C307.403931,339.967346 307.861053,342.341156 308.274994,345.476746 
	C304.294403,340.986206 300.400452,340.766785 296.388702,345.945221 
	C296.249939,345.405762 296.111176,344.866302 295.972412,344.326843 
	C296.688354,342.422974 297.404327,340.519104 298.316467,338.275787 
z"/>
<path fill="#424A4B" opacity="1.000000" stroke="none" 
	d="
M343.095764,337.604736 
	C345.175385,332.297943 350.597900,332.471405 353.048828,333.876129 
	C355.137787,335.073456 354.834076,340.445435 355.562164,343.845917 
	C345.697632,347.125793 342.958496,345.676636 343.095764,337.604736 
M347.794952,342.811920 
	C349.180084,341.721344 350.769867,340.784241 351.792084,339.421448 
	C352.019073,339.118866 350.421997,336.691895 349.340546,336.384705 
	C348.334717,336.098999 345.933868,337.222870 345.851471,337.925873 
	C345.686432,339.333984 346.685516,340.878510 347.794952,342.811920 
z"/>
<path fill="#DFE7E7" opacity="1.000000" stroke="none" 
	d="
M102.447495,253.055328 
	C102.612396,252.743729 103.243599,252.057755 103.876511,252.056183 
	C126.004807,252.000885 148.133270,252.010025 170.988495,252.010025 
	C170.988495,260.156891 170.988495,268.074432 170.988129,276.455353 
	C170.661682,273.958130 170.149597,271.003632 170.051910,268.035492 
	C169.894257,263.245941 170.009521,258.447418 170.009521,253.000076 
	C147.528641,253.000076 125.221619,253.000076 102.447495,253.055328 
z"/>
<path fill="#324143" opacity="1.000000" stroke="none" 
	d="
M444.955627,338.044739 
	C445.423981,338.024261 445.892334,338.003815 447.017639,338.296936 
	C460.069977,338.723785 472.465363,338.837067 484.860718,338.950378 
	C484.888062,339.431976 484.915375,339.913605 484.456482,340.714539 
	C472.201782,341.020233 460.433228,340.981628 448.664856,341.015808 
	C446.514862,341.022034 444.578857,341.056946 444.955627,338.044739 
z"/>
<path fill="#424A4B" opacity="1.000000" stroke="none" 
	d="
M226.889709,341.679016 
	C224.679123,346.562775 220.663712,345.260895 217.420486,344.428986 
	C216.219452,344.120880 214.859512,340.804626 215.135635,339.115967 
	C215.721756,335.531525 218.569565,333.502533 222.254532,333.641052 
	C227.343384,333.832397 226.704498,337.891479 226.889709,341.679016 
M218.417252,341.754272 
	C220.277161,341.508453 222.137085,341.262604 223.996979,341.016754 
	C223.546402,339.613770 223.302383,338.082916 222.549789,336.866852 
	C222.220535,336.334839 220.203171,336.076996 220.061157,336.326263 
	C219.217758,337.806854 218.699188,339.472504 218.417252,341.754272 
z"/>
<path fill="#596466" opacity="1.000000" stroke="none" 
	d="
M332.174988,271.277283 
	C331.920441,260.800873 331.960205,250.509995 332.004059,240.219101 
	C332.013580,237.986618 332.067841,235.325165 328.859192,236.103851 
	C327.653992,236.396317 326.155609,238.682999 326.122589,240.091705 
	C325.881592,250.378464 325.979645,260.673157 325.939148,271.423798 
	C325.606598,270.673553 325.051849,269.466522 325.044189,268.255981 
	C324.976044,257.469910 325.004486,246.683228 325.004486,235.513702 
	C327.581787,235.513702 329.957123,235.513702 332.470764,235.513702 
	C332.470764,247.448410 332.470764,259.455627 332.174988,271.277283 
z"/>
<path fill="#4B5354" opacity="1.000000" stroke="none" 
	d="
M431.955750,341.004333 
	C433.265808,340.928375 434.582855,340.832947 434.492340,340.839508 
	C434.420746,338.548492 433.419250,335.563599 434.461670,334.382172 
	C437.529663,330.905090 439.261963,334.428986 442.048645,337.003113 
	C439.535492,336.585785 438.057404,336.340332 435.207520,335.867065 
	C436.820953,337.346436 437.410370,337.920837 438.035645,338.453186 
	C439.360809,339.581451 440.938171,340.525360 441.896698,341.903351 
	C442.179657,342.310150 440.746124,344.805084 440.082092,344.812500 
	C437.899872,344.836853 435.674500,344.281830 433.545013,343.672363 
	C432.935822,343.497986 432.595459,342.384216 432.065674,341.334351 
	C431.999542,340.967499 431.962769,340.984894 431.955750,341.004333 
z"/>
<path fill="#424A4B" opacity="1.000000" stroke="none" 
	d="
M389.986511,341.497620 
	C389.750793,335.775848 391.725464,333.301819 396.413940,333.590942 
	C400.653961,333.852417 401.254028,337.260956 400.792145,340.389679 
	C400.548187,342.042053 398.647278,344.625702 397.370667,344.701385 
	C394.825409,344.852295 390.697449,347.167175 389.986511,341.497620 
M397.189789,337.902130 
	C395.898193,337.459900 394.606628,337.017700 393.315033,336.575470 
	C392.839661,338.373810 392.364258,340.172180 391.888885,341.970520 
	C392.362000,342.178650 392.835083,342.386780 393.308197,342.594940 
	C394.953918,341.391968 399.320435,343.513306 397.189789,337.902130 
z"/>
<path fill="#2F4042" opacity="1.000000" stroke="none" 
	d="
M198.007370,337.030029 
	C198.044739,337.451019 198.082108,337.872009 197.617493,338.581665 
	C184.707840,338.874023 172.300171,338.877716 159.892517,338.881439 
	C159.918304,338.496460 159.944092,338.111481 160.420380,337.385193 
	C173.249710,337.039246 185.628540,337.034637 198.007370,337.030029 
z"/>
<path fill="#4B5354" opacity="1.000000" stroke="none" 
	d="
M381.952087,340.392944 
	C383.416077,336.939331 384.862427,333.826080 386.308746,330.712830 
	C387.404022,336.784332 383.172302,344.397522 379.474304,344.978760 
	C378.127045,341.391388 376.674164,337.787201 375.469635,334.101868 
	C375.215851,333.325409 375.873138,332.251160 376.110657,331.314148 
	C376.808533,331.989624 377.765900,332.541962 378.155823,333.363556 
	C379.342377,335.863892 380.308105,338.468872 381.371704,341.028137 
	C381.401001,341.098663 381.623810,341.173828 381.655579,341.143005 
	C381.771667,341.030273 381.844971,340.873505 381.952087,340.392944 
z"/>
<path fill="#424A4B" opacity="1.000000" stroke="none" 
	d="
M364.955811,341.065308 
	C364.117615,339.117584 363.278534,337.599121 362.439453,336.080658 
	C361.605591,337.620941 360.588104,339.094299 359.995148,340.722321 
	C359.507111,342.062286 359.522522,343.585663 359.314850,345.027740 
	C358.626068,345.003479 357.937286,344.979187 357.248505,344.954926 
	C357.248505,341.586456 356.795105,338.108368 357.564606,334.925934 
	C357.759003,334.121826 361.906097,333.861725 364.144135,334.128662 
	C365.351318,334.272675 367.040619,335.909515 367.315826,337.140350 
	C367.833344,339.455139 367.508179,341.964569 367.437775,344.390259 
	C367.433136,344.549561 366.250671,344.846558 366.234039,344.808594 
	C365.759125,343.725220 365.363464,342.607056 364.955811,341.065308 
z"/>
<path fill="#324143" opacity="1.000000" stroke="none" 
	d="
M207.779846,336.986755 
	C209.578156,335.281860 210.963120,333.593506 212.489380,331.732971 
	C212.489380,335.895233 212.489380,340.187592 212.489380,344.479919 
	C212.195435,344.515778 211.901505,344.551636 211.607559,344.587494 
	C211.265625,342.960327 210.923706,341.333130 210.507797,339.353882 
	C208.635941,339.353882 206.742966,339.353882 204.569794,339.353882 
	C204.169464,341.094879 203.765015,342.853790 203.360580,344.612701 
	C203.070740,344.574524 202.780899,344.536346 202.491058,344.498169 
	C202.491058,340.197906 202.491058,335.897644 202.491058,330.720612 
	C204.886139,333.037994 202.599686,337.883392 207.779846,336.986755 
z"/>
<path fill="#424A4B" opacity="1.000000" stroke="none" 
	d="
M416.902710,344.633301 
	C408.985199,345.058044 406.499756,343.138031 408.310638,337.559509 
	C408.898773,335.747772 412.299408,334.519928 414.651154,333.780975 
	C415.522583,333.507141 417.075531,335.402100 417.903931,336.817169 
	C412.489868,335.708740 410.202484,336.655273 411.062286,340.100220 
	C411.515320,341.915314 412.216095,344.312531 415.013580,341.884521 
	C415.633514,341.346436 416.945709,341.605865 417.939148,341.498108 
	C417.689423,342.454498 417.439697,343.410950 416.902710,344.633301 
z"/>
<path fill="#4B5354" opacity="1.000000" stroke="none" 
	d="
M333.490265,344.989502 
	C327.980225,342.033813 330.744049,337.976715 331.238098,333.868378 
	C334.776917,334.729034 339.153534,332.013733 340.919250,337.309174 
	C338.535950,339.639496 333.796753,332.161530 333.010376,339.148438 
	C332.213623,346.227417 338.785522,340.394470 341.619965,344.241394 
	C338.545929,344.557953 336.228577,344.796570 333.490265,344.989502 
z"/>
<path fill="#C6CDD0" opacity="1.000000" stroke="none" 
	d="
M356.937866,186.630096 
	C357.159607,197.156967 357.159607,207.359146 357.159607,217.785583 
	C359.042755,217.785583 360.643219,217.785583 363.025574,217.785583 
	C363.025574,211.874283 362.985626,205.843567 363.099060,199.815750 
	C363.108459,199.316849 364.156647,198.837509 364.858093,198.669418 
	C364.660919,203.288895 364.275116,207.584869 364.017181,211.888519 
	C363.888824,214.030380 363.994843,216.186279 363.994843,218.665268 
	C361.427307,218.665268 358.912231,218.665268 356.716095,218.665268 
	C356.716095,207.876053 356.716095,197.090729 356.937866,186.630096 
z"/>
<path fill="#324143" opacity="1.000000" stroke="none" 
	d="
M284.642822,332.739288 
	C285.847961,331.117493 286.901154,329.864166 287.954346,328.610809 
	C288.402496,328.943237 288.850647,329.275665 289.298798,329.608093 
	C288.656342,334.720398 288.013885,339.832703 287.371429,344.945007 
	C286.767761,344.969360 286.164124,344.993713 285.560455,345.018066 
	C285.203918,341.047943 284.847382,337.077820 284.642822,332.739288 
z"/>
<path fill="#778183" opacity="1.000000" stroke="none" 
	d="
M349.856079,283.601746 
	C344.275696,284.002258 338.510132,284.002258 331.983521,284.002258 
	C331.983521,296.274689 331.983521,308.127472 331.942596,320.440247 
	C331.622955,320.534393 331.101929,320.169373 331.100647,319.802521 
	C331.058228,307.682861 331.065552,295.563019 331.065552,283.201202 
	C337.461426,283.201202 343.566162,283.201202 349.856079,283.601746 
z"/>
<path fill="#424A4B" opacity="1.000000" stroke="none" 
	d="
M314.869202,331.369080 
	C314.344727,336.106476 313.934174,340.506439 313.466370,345.520264 
	C310.171204,342.019470 309.680603,332.816833 311.966217,330.202179 
	C313.606689,328.325470 314.633728,328.366608 314.869202,331.369080 
z"/>
<path fill="#DFE7E7" opacity="1.000000" stroke="none" 
	d="
M130.577759,352.951904 
	C130.433167,351.819122 130.972244,350.735596 130.970886,349.652771 
	C130.954468,336.576080 130.858231,323.499481 130.402039,310.212463 
	C132.235153,307.963196 131.996552,309.889648 132.000412,311.257080 
	C132.017334,317.232422 131.999756,323.207825 131.999222,329.183228 
	C131.998611,335.988495 132.048325,342.794373 131.960236,349.598480 
	C131.945496,350.736725 131.341843,351.867371 130.577759,352.951904 
z"/>
<path fill="#778183" opacity="1.000000" stroke="none" 
	d="
M378.134583,320.313507 
	C377.860168,308.328522 377.860168,296.584930 377.860168,284.244934 
	C375.783813,284.149231 373.878662,284.061401 371.534424,283.941284 
	C373.551300,283.498810 376.007294,283.088654 378.408997,282.687561 
	C378.408997,295.661346 378.408997,308.108124 378.134583,320.313507 
z"/>
<path fill="#AAB4B5" opacity="1.000000" stroke="none" 
	d="
M444.564148,338.203583 
	C444.578857,341.056946 446.514862,341.022034 448.664856,341.015808 
	C460.433228,340.981628 472.201782,341.020233 484.429840,341.076019 
	C484.382233,341.412292 483.875977,341.961456 483.367737,341.963287 
	C470.319122,342.010437 457.270325,342.000519 444.172638,342.000519 
	C444.172638,340.634003 444.172638,339.498230 444.564148,338.203583 
z"/>
<path fill="#778183" opacity="1.000000" stroke="none" 
	d="
M253.904770,235.652527 
	C254.164948,247.334915 254.164948,258.747986 254.164948,270.753967 
	C256.227173,270.846924 258.132935,270.932800 260.478760,271.051575 
	C258.463287,271.495728 256.007751,271.906982 253.644592,272.302765 
	C253.644592,259.645172 253.644592,247.514191 253.904770,235.652527 
z"/>
<path fill="#778183" opacity="1.000000" stroke="none" 
	d="
M286.896118,235.649628 
	C287.155945,247.335052 287.155945,258.750885 287.155945,270.754700 
	C289.225616,270.849060 291.132202,270.935974 293.479370,271.051331 
	C291.465271,271.495331 289.010529,271.910889 286.636292,272.312805 
	C286.636292,259.655273 286.636292,247.517639 286.896118,235.649628 
z"/>
<path fill="#778183" opacity="1.000000" stroke="none" 
	d="
M433.595093,235.244507 
	C433.971191,246.744293 433.971191,258.453918 433.971191,270.688019 
	C435.871552,270.796051 437.438385,270.885132 439.699799,270.956482 
	C440.570404,270.966888 440.746399,270.995087 440.922363,271.023254 
	C438.495911,271.481262 436.069489,271.939270 433.218964,272.477356 
	C433.218964,259.757019 433.218964,247.605682 433.595093,235.244507 
z"/>
<path fill="#C6CDD0" opacity="1.000000" stroke="none" 
	d="
M377.129486,218.398193 
	C379.126923,217.981476 381.259460,217.981476 383.360931,217.981476 
	C383.360931,207.477020 383.360931,197.172836 383.233856,186.470688 
	C383.734589,186.729691 384.901947,187.380539 384.909454,188.044510 
	C385.025238,198.281952 384.990265,208.521103 384.990265,218.814896 
	C382.153717,218.814896 379.709167,218.814896 377.129486,218.398193 
z"/>
<path fill="#DFE7E7" opacity="1.000000" stroke="none" 
	d="
M422.578156,320.937073 
	C422.433594,318.820099 422.962830,316.745453 422.966400,314.669922 
	C422.983704,304.568634 422.860291,294.467102 422.387573,284.181519 
	C425.118439,281.885071 423.938141,284.992493 423.946167,285.822113 
	C424.040558,295.580414 424.057007,305.340546 423.956451,315.098785 
	C423.936188,317.061920 423.340179,319.019104 422.578156,320.937073 
z"/>
<path fill="#616B6D" opacity="1.000000" stroke="none" 
	d="
M159.686691,339.173798 
	C172.300171,338.877716 184.707840,338.874023 197.588562,338.898010 
	C197.749573,339.253876 197.435211,339.870972 197.125763,339.868500 
	C184.577179,339.769287 172.029053,339.614166 159.686691,339.173798 
z"/>
<path fill="#929D9D" opacity="1.000000" stroke="none" 
	d="
M197.847458,336.616730 
	C185.628540,337.034637 173.249710,337.039246 160.400543,337.096130 
	C160.404556,336.764374 160.879089,336.045105 161.353180,336.045380 
	C173.464661,336.052277 185.576111,336.134430 197.847458,336.616730 
z"/>
<path fill="#AAB4B5" opacity="1.000000" stroke="none" 
	d="
M205.965302,283.604034 
	C206.131516,295.973846 206.080322,308.004395 205.991074,320.499939 
	C205.797668,320.907806 205.505936,320.849976 205.506226,320.793732 
	C205.573334,308.284027 205.660919,295.774384 205.965302,283.604034 
z"/>
<path fill="#4B5354" opacity="1.000000" stroke="none" 
	d="
M484.613403,338.622253 
	C472.465363,338.837067 460.069977,338.723785 447.367157,338.341370 
	C459.495178,338.146210 471.930634,338.220184 484.613403,338.622253 
z"/>
<path fill="#C6CDD0" opacity="1.000000" stroke="none" 
	d="
M291.951477,283.625061 
	C292.123169,295.981354 292.078461,308.004944 291.988892,320.492279 
	C291.644287,320.650146 291.083466,320.345306 291.082306,320.038361 
	C291.036957,307.991577 291.039185,295.944580 291.070343,283.897675 
	C291.070892,283.695343 291.503876,283.494110 291.951477,283.625061 
z"/>
<path fill="#4B5354" opacity="1.000000" stroke="none" 
	d="
M142.655548,309.998138 
	C143.145737,320.261322 143.342285,330.862457 143.846542,341.759521 
	C143.789597,342.882690 143.424957,343.709900 143.060303,344.537140 
	C142.827515,344.497253 142.594711,344.457367 142.361923,344.417480 
	C142.361923,333.057037 142.361923,321.696564 142.655548,309.998138 
z"/>
<path fill="#596466" opacity="1.000000" stroke="none" 
	d="
M464.186432,271.271057 
	C463.913635,259.374237 463.935577,247.661423 463.981262,235.481598 
	C464.262177,235.202057 464.745087,235.390701 464.744110,235.576797 
	C464.681458,247.536346 464.579559,259.495697 464.186432,271.271057 
z"/>
<path fill="#424A4B" opacity="1.000000" stroke="none" 
	d="
M391.620972,284.391205 
	C391.829956,295.190094 391.720001,306.244415 391.348358,317.607056 
	C391.158478,306.825806 391.230286,295.736206 391.620972,284.391205 
z"/>
<path fill="#424A4B" opacity="1.000000" stroke="none" 
	d="
M285.622070,187.387634 
	C285.951538,197.403214 285.963013,207.676788 285.955780,218.406174 
	C285.625641,216.504883 285.056091,214.148514 285.049622,211.790604 
	C285.027527,203.742584 285.203583,195.694000 285.622070,187.387634 
z"/>
<path fill="#C6CDD0" opacity="1.000000" stroke="none" 
	d="
M213.861481,205.275925 
	C213.553223,200.502899 213.297028,195.279541 213.013428,190.057648 
	C212.792694,185.993484 212.537811,181.931168 212.192749,177.462097 
	C212.723419,178.030304 213.897003,178.996841 213.910904,179.979767 
	C214.028030,188.260223 213.932983,196.543671 213.861481,205.275925 
z"/>
<path fill="#DFE7E7" opacity="1.000000" stroke="none" 
	d="
M238.427094,204.778900 
	C237.928284,196.073746 237.841187,187.218536 237.352921,178.181458 
	C240.230865,175.583618 238.923294,178.972427 238.928680,179.766983 
	C238.984955,188.053680 238.891068,196.341400 238.427094,204.778900 
z"/>
<path fill="#DFE7E7" opacity="1.000000" stroke="none" 
	d="
M204.961975,177.620132 
	C205.121063,186.642975 205.064880,195.329269 204.997833,204.480682 
	C204.655899,203.660614 204.019226,202.369553 204.043671,201.091141 
	C204.195526,193.153702 204.495743,185.219101 204.961975,177.620132 
z"/>
<path fill="#DFE7E7" opacity="1.000000" stroke="none" 
	d="
M471.789001,299.520996 
	C465.137817,299.930389 458.329865,299.930389 450.985840,299.930389 
	C450.985840,301.857452 450.985840,303.450287 450.935181,305.484863 
	C450.463562,303.814270 450.042633,301.701904 449.526459,299.111603 
	C457.241730,299.111603 464.436981,299.111603 471.789001,299.520996 
z"/>
<path fill="#C6CDD0" opacity="1.000000" stroke="none" 
	d="
M279.411011,309.912628 
	C278.899841,301.509674 278.807159,292.946014 278.318359,284.193726 
	C281.295563,281.503296 279.921539,285.014282 279.927399,285.800903 
	C279.986725,293.783905 279.885651,301.768097 279.411011,309.912628 
z"/>
<path fill="#596466" opacity="1.000000" stroke="none" 
	d="
M398.156677,320.308716 
	C397.912201,313.172913 397.921783,306.233063 398.071594,299.296265 
	C398.090179,298.435059 397.172729,295.684753 399.987915,297.938171 
	C399.656525,301.967896 399.268219,305.609131 399.016998,309.259827 
	C398.759369,313.003601 398.635834,316.756622 398.156677,320.308716 
z"/>
<path fill="#C6CDD0" opacity="1.000000" stroke="none" 
	d="
M229.965881,177.612183 
	C230.112854,186.293961 230.049088,194.631912 229.980621,203.431686 
	C229.653442,201.940536 229.031357,199.982758 229.062469,198.035431 
	C229.173126,191.111145 229.506271,184.190430 229.965881,177.612183 
z"/>
<path fill="#596466" opacity="1.000000" stroke="none" 
	d="
M440.952454,270.554016 
	C440.746399,270.995087 440.570404,270.966888 440.128693,270.906342 
	C439.914185,264.149414 439.903809,257.423065 440.098419,250.702637 
	C440.121460,249.906143 441.266113,249.142120 441.944458,248.701172 
	C441.664703,253.559677 441.271667,258.076782 441.021698,262.601807 
	C440.884277,265.089233 440.987671,267.590027 440.952454,270.554016 
z"/>
<path fill="#AAB4B5" opacity="1.000000" stroke="none" 
	d="
M271.958466,283.613647 
	C272.024597,292.067139 271.869659,300.189270 271.404968,308.580444 
	C271.309265,300.327087 271.523315,291.804688 271.958466,283.613647 
z"/>
<path fill="#424A4B" opacity="1.000000" stroke="none" 
	d="
M249.622101,284.370148 
	C249.965561,292.454590 249.987976,300.796295 249.997284,309.614777 
	C249.655685,306.731140 249.109985,303.374634 249.049255,300.009399 
	C248.956802,294.885254 249.200241,289.755035 249.622101,284.370148 
z"/>
<path fill="#929D9D" opacity="1.000000" stroke="none" 
	d="
M415.955688,283.604431 
	C416.075104,291.553101 415.969818,299.174866 415.847717,306.796326 
	C415.846283,306.884125 415.577057,307.066956 415.517517,307.037018 
	C415.283844,306.919556 415.084198,306.734467 414.823303,306.243011 
	C414.859589,299.377350 414.916199,292.842529 415.058838,286.309601 
	C415.080994,285.294495 415.496277,284.287994 415.955688,283.604431 
z"/>
<path fill="#596466" opacity="1.000000" stroke="none" 
	d="
M457.626831,235.235077 
	C457.799255,242.728348 457.601013,250.439987 457.116272,258.027893 
	C456.971863,250.420578 457.113983,242.937012 457.626831,235.235077 
z"/>
<path fill="#616B6D" opacity="1.000000" stroke="none" 
	d="
M101.969833,275.481506 
	C101.758957,268.823364 101.572411,261.701294 101.688843,254.290466 
	C101.992599,261.006989 101.993385,268.012299 101.969833,275.481506 
z"/>
<path fill="#000000" opacity="1.000000" stroke="none" 
	d="
M114.135071,236.124466 
	C113.660172,236.070816 113.185272,236.017166 112.357399,235.511627 
	C111.983208,226.379639 111.961990,217.699524 111.940781,209.019409 
	C113.399239,208.524994 114.857704,208.030579 116.916916,207.332520 
	C116.916916,213.467804 116.916916,219.329910 116.916916,225.953705 
	C119.387596,225.953705 121.296844,225.953705 124.025742,225.712616 
	C124.935959,215.975754 125.026527,206.479950 125.117096,196.984161 
	C127.469414,195.392609 129.803040,193.187485 132.647247,197.342346 
	C132.986725,204.970825 132.919174,212.023117 133.038513,219.072250 
	C133.077271,221.361786 133.604767,223.643036 133.908707,225.928085 
	C136.021240,225.928085 138.133774,225.928085 140.990387,225.928085 
	C140.990387,217.654572 140.937744,209.791534 141.007141,201.929581 
	C141.062119,195.703491 144.003036,194.035309 149.722382,197.512482 
	C150.040115,203.454727 149.909943,208.943481 150.038849,214.426147 
	C150.121155,217.926315 150.586823,221.417450 150.880615,224.912643 
	C153.332382,224.912643 155.784149,224.912643 158.685638,224.912643 
	C158.685638,219.116928 158.685638,213.714432 158.685638,207.617111 
	C160.663361,208.519501 162.027802,209.142059 163.693573,210.352997 
	C163.976166,219.306305 163.957443,227.671265 163.938736,236.036209 
	C163.938736,236.036209 164.018890,236.028564 163.547455,236.004105 
	C146.762375,236.027924 130.448715,236.076202 114.135071,236.124466 
z"/>
<path fill="#000000" opacity="1.000000" stroke="none" 
	d="
M111.025604,246.085205 
	C111.016617,244.999832 111.007637,243.914444 111.467026,242.424866 
	C129.291336,242.020203 146.647278,242.019760 164.003235,242.019318 
	C164.002533,243.101273 164.001831,244.183228 163.524506,245.634552 
	C145.707123,246.031006 128.366364,246.058105 111.025604,246.085205 
z"/>
<path fill="#778183" opacity="1.000000" stroke="none" 
	d="
M163.742828,241.683868 
	C146.647278,242.019760 129.291336,242.020203 111.466553,242.018204 
	C111.539101,241.694748 112.081284,241.092072 112.621735,241.093628 
	C129.575394,241.142334 146.528885,241.249863 163.742828,241.683868 
z"/>
<path fill="#C6CDD0" opacity="1.000000" stroke="none" 
	d="
M111.260612,246.443390 
	C128.366364,246.058105 145.707123,246.031006 163.513855,246.040131 
	C163.287552,246.384949 162.595016,246.963348 161.903046,246.962677 
	C145.100525,246.946426 128.298080,246.868439 111.260612,246.443390 
z"/>
<path fill="#616B6D" opacity="1.000000" stroke="none" 
	d="
M114.443573,236.381912 
	C130.448715,236.076202 146.762375,236.027924 163.546753,235.963867 
	C163.468140,236.269928 162.918076,236.873993 162.369537,236.872589 
	C146.496948,236.831970 130.624527,236.730789 114.443573,236.381912 
z"/>
<path fill="#C6CDD0" opacity="1.000000" stroke="none" 
	d="
M133.955627,225.466248 
	C133.604767,223.643036 133.077271,221.361786 133.038513,219.072250 
	C132.919174,212.023117 132.986725,204.970825 132.937134,197.451874 
	C133.261032,198.427704 133.928574,199.867371 133.948059,201.315781 
	C134.054291,209.210800 134.000977,217.107971 133.955627,225.466248 
z"/>
<path fill="#929D9D" opacity="1.000000" stroke="none" 
	d="
M124.747330,197.208557 
	C125.026527,206.479950 124.935959,215.975754 124.476181,225.680481 
	C124.197174,216.403946 124.287369,206.918457 124.747330,197.208557 
z"/>
<path fill="#DFE7E7" opacity="1.000000" stroke="none" 
	d="
M150.929932,224.451950 
	C150.586823,221.417450 150.121155,217.926315 150.038849,214.426147 
	C149.909943,208.943481 150.040115,203.454727 150.090591,197.503204 
	C150.412689,201.895050 150.802490,206.748947 150.966858,211.610474 
	C151.106216,215.732834 150.985092,219.863998 150.929932,224.451950 
z"/>
<path fill="#DFE7E7" opacity="1.000000" stroke="none" 
	d="
M111.628693,209.304016 
	C111.961990,217.699524 111.983208,226.379639 111.998352,235.528046 
	C111.662247,233.668716 111.067543,231.342789 111.052780,229.013168 
	C111.011757,222.539139 111.211800,216.063568 111.628693,209.304016 
z"/>
<path fill="#778183" opacity="1.000000" stroke="none" 
	d="
M164.279816,235.777542 
	C163.957443,227.671265 163.976166,219.306305 164.011322,210.473373 
	C164.354721,214.046326 164.871948,218.083252 164.957626,222.129303 
	C165.052048,226.588104 164.750153,231.055328 164.279816,235.777542 
z"/>
<path fill="#000000" opacity="1.000000" stroke="none" 
	d="
M157.009857,265.318451 
	C157.306915,271.408386 157.802246,277.500519 157.734329,283.586365 
	C157.720688,284.808624 155.565811,286.006958 154.398193,287.216339 
	C153.919449,286.940582 153.440689,286.664825 152.961945,286.389069 
	C152.961945,282.466858 152.961945,278.544647 152.961945,274.343201 
	C150.807144,274.343201 149.241562,274.343201 147.010269,274.343201 
	C147.010269,279.687958 147.229752,284.816101 146.894806,289.907806 
	C146.772598,291.765350 145.552689,293.697845 144.397110,295.276733 
	C143.837311,296.041595 141.907852,296.681793 141.242081,296.288635 
	C140.205246,295.676331 139.156570,294.164764 139.094696,292.982910 
	C138.851105,288.329712 138.990601,283.656433 138.988480,278.990631 
	C138.987656,277.205963 138.988342,275.421295 138.988342,273.341919 
	C136.801788,273.341919 135.236191,273.341919 133.014557,273.341919 
	C133.014557,279.357269 132.977173,285.140137 133.029587,290.922180 
	C133.057724,294.025848 132.589264,296.890137 128.711517,296.804779 
	C125.112885,296.725555 124.889404,294.027466 124.952805,291.124268 
	C125.079376,285.328766 124.990334,279.528534 124.990334,273.854919 
	C119.009132,272.491943 118.723816,272.751678 118.962509,277.950226 
	C119.090714,280.742493 118.985298,283.545532 118.985298,286.343689 
	C118.483627,286.646423 117.981949,286.949158 117.480278,287.251892 
	C116.320206,285.819275 114.231956,284.429230 114.164001,282.946564 
	C113.898499,277.153198 114.271996,271.330536 115.192261,265.260193 
	C129.654343,265.107208 143.332092,265.212830 157.009857,265.318451 
z"/>
<path fill="#616B6D" opacity="1.000000" stroke="none" 
	d="
M156.772888,264.955994 
	C143.332092,265.212830 129.654343,265.107208 115.512268,264.979340 
	C115.295448,264.742310 115.543816,264.338715 115.790306,264.339844 
	C129.372269,264.402893 142.954086,264.499939 156.772888,264.955994 
z"/>
<path fill="#000000" opacity="1.000000" stroke="none" 
	d="
M216.944946,251.657791 
	C218.214981,247.731979 219.411133,244.171616 221.056213,239.275024 
	C223.138870,245.593384 224.855713,250.801926 227.012253,257.344452 
	C222.682816,256.827148 219.430084,256.438477 216.177353,256.049835 
	C216.408600,254.707642 216.639847,253.365433 216.944946,251.657791 
z"/>
<path fill="#000000" opacity="1.000000" stroke="none" 
	d="
M308.506287,313.750580 
	C301.467438,316.278503 299.870392,315.548584 300.060852,309.951813 
	C300.115479,308.345459 300.986664,305.408905 301.515472,305.401611 
	C304.488342,305.360596 308.181030,305.079163 310.295044,306.661194 
	C314.102203,309.510254 313.420135,311.321991 308.506287,313.750580 
z"/>
<path fill="#000000" opacity="1.000000" stroke="none" 
	d="
M306.489136,290.009949 
	C308.528564,291.766266 311.855927,294.362030 311.481628,295.113037 
	C309.293518,299.503784 304.898712,299.010315 300.824829,298.784302 
	C298.766937,290.980499 299.342834,290.049805 306.489136,290.009949 
z"/>
<path fill="#000000" opacity="1.000000" stroke="none" 
	d="
M347.319061,305.073975 
	C350.339783,306.661407 353.204224,308.196533 351.231110,311.922485 
	C349.884399,314.465576 341.249847,316.567413 340.072479,314.496704 
	C338.911713,312.455292 339.023346,309.480072 339.260864,306.979492 
	C339.333984,306.210083 341.596436,305.422913 342.966217,305.069305 
	C344.199158,304.751038 345.582550,305.015350 347.319061,305.073975 
z"/>
<path fill="#000000" opacity="1.000000" stroke="none" 
	d="
M338.995331,294.929810 
	C338.223572,289.915070 341.124359,289.851654 344.376251,289.960602 
	C347.465057,290.064087 350.568909,290.050507 350.871155,294.180450 
	C351.240509,299.227875 346.742004,298.049469 344.196259,298.808411 
	C341.817322,299.517639 338.579132,299.740845 338.995331,294.929810 
z"/>
<path fill="#000000" opacity="1.000000" stroke="none" 
	d="
M213.991333,295.186554 
	C213.241013,290.378723 215.661011,289.652222 219.213501,289.991974 
	C225.872391,290.628815 231.841843,297.729645 230.964890,304.139465 
	C230.149048,310.102600 223.112671,315.984894 213.989990,313.156891 
	C213.989990,307.494141 213.989990,301.577942 213.991333,295.186554 
z"/>
<path fill="#000000" opacity="1.000000" stroke="none" 
	d="
M301.232697,241.927353 
	C302.988892,244.039749 304.406891,245.999283 305.824860,247.958832 
	C302.331970,249.583023 298.839050,251.207199 294.430908,253.256973 
	C294.430908,248.610703 294.430908,245.602402 294.430908,242.207870 
	C296.696747,242.055939 298.795624,241.915222 301.232697,241.927353 
z"/>
<path fill="#000000" opacity="1.000000" stroke="none" 
	d="
M403.752441,258.947906 
	C402.896820,257.870575 401.828339,256.664551 402.067505,255.836151 
	C402.957092,252.755493 404.276581,249.798996 405.845856,245.729660 
	C407.566956,250.473373 408.942657,254.265106 410.657867,258.992554 
	C407.655426,258.992554 405.897614,258.992554 403.752441,258.947906 
z"/>
<path fill="#000000" opacity="1.000000" stroke="none" 
	d="
M299.968811,212.404617 
	C292.450073,213.534698 291.577057,213.117020 292.102448,208.395401 
	C292.235992,207.195389 293.592682,205.253830 294.505920,205.183044 
	C297.228882,204.972015 300.863525,203.742188 301.929352,207.763474 
	C302.259918,209.010681 300.903107,210.705124 299.968811,212.404617 
z"/>
<path fill="#000000" opacity="1.000000" stroke="none" 
	d="
M302.346191,195.234360 
	C301.189240,200.024170 297.185150,199.314865 293.970459,199.738968 
	C293.480743,199.803589 292.063904,197.323059 292.151245,196.096268 
	C292.250763,194.698044 293.791748,192.146240 294.296875,192.242569 
	C297.009064,192.759827 299.593811,193.945435 302.346191,195.234360 
z"/>
<path fill="#000000" opacity="1.000000" stroke="none" 
	d="
M258.036041,194.290894 
	C260.640930,193.472763 263.322876,192.528900 265.730988,192.996201 
	C266.673981,193.179184 267.860229,197.963440 267.469360,198.196884 
	C265.247894,199.523605 262.582886,200.107635 260.068756,200.944305 
	C259.380371,198.872772 258.691986,196.801224 258.036041,194.290894 
z"/>
<path fill="#000000" opacity="1.000000" stroke="none" 
	d="
M331.329620,206.991287 
	C330.445129,206.007980 329.397858,204.914398 329.584991,204.106918 
	C330.164917,201.604706 331.214325,199.211319 333.279266,196.490921 
	C334.068024,199.590332 334.920776,202.678497 335.473114,205.819489 
	C335.503510,205.992279 333.036224,206.604309 331.329620,206.991287 
z"/>
<path fill="#000000" opacity="1.000000" stroke="none" 
	d="
M270.939941,338.093323 
	C272.458282,336.127106 273.971344,334.569061 275.484406,333.011017 
	C276.994171,334.730072 279.821198,336.583344 279.663361,338.132477 
	C279.486237,339.870880 276.834412,342.177979 274.852844,342.702545 
	C272.413422,343.348358 270.762878,341.320892 270.939941,338.093323 
z"/>
<path fill="#000000" opacity="1.000000" stroke="none" 
	d="
M347.499512,342.589325 
	C346.685516,340.878510 345.686432,339.333984 345.851471,337.925873 
	C345.933868,337.222870 348.334717,336.098999 349.340546,336.384705 
	C350.421997,336.691895 352.019073,339.118866 351.792084,339.421448 
	C350.769867,340.784241 349.180084,341.721344 347.499512,342.589325 
z"/>
<path fill="#000000" opacity="1.000000" stroke="none" 
	d="
M218.244354,341.415100 
	C218.699188,339.472504 219.217758,337.806854 220.061157,336.326263 
	C220.203171,336.076996 222.220535,336.334839 222.549789,336.866852 
	C223.302383,338.082916 223.546402,339.613770 223.996979,341.016754 
	C222.137085,341.262604 220.277161,341.508453 218.244354,341.415100 
z"/>
<path fill="#000000" opacity="1.000000" stroke="none" 
	d="
M397.465881,338.136597 
	C399.320435,343.513306 394.953918,341.391968 393.308197,342.594940 
	C392.835083,342.386780 392.362000,342.178650 391.888885,341.970520 
	C392.364258,340.172180 392.839661,338.373810 393.315033,336.575470 
	C394.606628,337.017700 395.898193,337.459900 397.465881,338.136597 
z"/>
</svg>