<?xml version="1.0" encoding="UTF-8"?>
<!DOCTYPE svg PUBLIC "-//W3C//DTD SVG 1.1//EN" "http://www.w3.org/Graphics/SVG/1.1/DTD/svg11.dtd">
<svg xmlns="http://www.w3.org/2000/svg" version="1.1" width="139" height="52" style="shape-rendering:geometricPrecision; text-rendering:geometricPrecision; image-rendering:optimizeQuality; fill-rule:evenodd; clip-rule:evenodd" xmlns:xlink="http://www.w3.org/1999/xlink">
<g><path style="opacity:0.951" fill="#465c46" d="M 77.5,55.5 C 77.5,52.1667 77.5,48.8333 77.5,45.5C 64.6557,45.1713 51.989,45.5046 39.5,46.5C 39.5,50.1667 39.5,53.8333 39.5,57.5C 37.7705,56.3593 36.7705,54.6926 36.5,52.5C 37.2394,50.3881 37.2394,48.3881 36.5,46.5C 33.2426,48.1057 31.0759,47.1057 30,43.5C 25.3247,46.0401 20.4913,47.3734 15.5,47.5C 9.63054,43.8441 5.29721,39.0108 2.5,33C 4.59396,30.3661 4.9273,27.5328 3.5,24.5C 4.75925,19.9514 7.42592,16.6181 11.5,14.5C 11.9604,10.7359 13.9604,8.23589 17.5,7C 22.923,5.41314 28.423,4.24648 34,3.5C 35.8333,3.83333 37.6667,4.16667 39.5,4.5C 40.1654,6.10118 40.4988,7.60118 40.5,9C 43.2081,10.0695 45.8747,11.2361 48.5,12.5C 50.109,11.1117 51.9423,10.1117 54,9.5C 57.4605,10.2181 60.9605,10.7181 64.5,11C 69.0302,15.2073 72.1969,20.3739 74,26.5C 76.6391,30.6388 79.4724,34.6388 82.5,38.5C 85.333,37.0668 88.333,36.4001 91.5,36.5C 90.8281,41.0134 88.9948,45.0134 86,48.5C 83.0019,50.6677 80.1686,53.0011 77.5,55.5 Z"/></g>
<g><path style="opacity:0.744" fill="#020602" d="M 103.5,12.5 C 104.5,12.5 105.5,12.5 106.5,12.5C 106.334,17.5111 106.501,22.5111 107,27.5C 109.76,29.703 112.76,30.0363 116,28.5C 116.499,23.1771 116.666,17.8437 116.5,12.5C 117.833,12.5 119.167,12.5 120.5,12.5C 120.861,18.5933 120.361,24.5933 119,30.5C 114,34.5 109,34.5 104,30.5C 103.501,24.5092 103.334,18.5092 103.5,12.5 Z"/></g>
<g><path style="opacity:1" fill="#f4f6f4" d="M 46.5,21.5 C 47.1667,25.1667 47.8333,28.8333 48.5,32.5C 49.1894,33.7736 50.0228,33.7736 51,32.5C 51.3333,27.5 51.6667,22.5 52,17.5C 53.3561,16.6198 54.8561,16.2865 56.5,16.5C 56.334,21.8437 56.5006,27.1771 57,32.5C 57.414,32.9574 57.914,33.2907 58.5,33.5C 59.4954,27.8722 59.8288,22.2055 59.5,16.5C 61.4672,16.2606 63.3005,16.5939 65,17.5C 65.4994,22.8229 65.666,28.1563 65.5,33.5C 66.5,33.5 67.5,33.5 68.5,33.5C 68.3343,29.1539 68.501,24.8206 69,20.5C 69.9147,21.3279 70.5814,22.3279 71,23.5C 71.499,27.8206 71.6657,32.1539 71.5,36.5C 62.8333,36.5 54.1667,36.5 45.5,36.5C 45.2743,31.4376 45.6076,26.4376 46.5,21.5 Z"/></g>
<g><path style="opacity:0.756" fill="#020602" d="M 124.5,16.5 C 128.846,16.3343 133.179,16.501 137.5,17C 141.265,19.9819 141.265,23.1486 137.5,26.5C 138.752,28.0009 139.752,29.6675 140.5,31.5C 139.833,31.8333 139.167,32.1667 138.5,32.5C 136.337,31.1677 134.67,29.3344 133.5,27C 131.527,26.5045 129.527,26.3379 127.5,26.5C 127.5,28.5 127.5,30.5 127.5,32.5C 126.5,32.5 125.5,32.5 124.5,32.5C 124.5,27.1667 124.5,21.8333 124.5,16.5 Z M 127.5,19.5 C 130.187,19.3359 132.854,19.5026 135.5,20C 135.957,20.414 136.291,20.914 136.5,21.5C 133.572,22.4841 130.572,22.8174 127.5,22.5C 127.5,21.5 127.5,20.5 127.5,19.5 Z"/></g>
<g><path style="opacity:0.778" fill="#020602" d="M 143.5,16.5 C 147.902,16.2281 152.235,16.5614 156.5,17.5C 157.494,20.8396 158.494,24.173 159.5,27.5C 159.368,29.601 158.368,31.101 156.5,32C 152.179,32.499 147.846,32.6657 143.5,32.5C 143.5,27.1667 143.5,21.8333 143.5,16.5 Z M 146.5,19.5 C 157.167,20.5 157.167,21.5 146.5,22.5C 146.5,21.5 146.5,20.5 146.5,19.5 Z M 146.5,25.5 C 149.187,25.3359 151.854,25.5026 154.5,26C 155.833,27 155.833,28 154.5,29C 151.854,29.4974 149.187,29.6641 146.5,29.5C 146.5,28.1667 146.5,26.8333 146.5,25.5 Z"/></g>
<g><path style="opacity:0.715" fill="#020602" d="M 167.5,16.5 C 168.675,16.281 169.675,16.6143 170.5,17.5C 172.833,22.1667 175.167,26.8333 177.5,31.5C 176.833,31.8333 176.167,32.1667 175.5,32.5C 173.892,30.3153 171.725,28.9819 169,28.5C 166.121,28.0488 164.288,29.2155 163.5,32C 162.167,32.6667 160.833,32.6667 159.5,32C 162.307,26.885 164.974,21.7183 167.5,16.5 Z M 168.5,22.5 C 171.481,25.1224 171.148,25.789 167.5,24.5C 167.863,23.8165 168.196,23.1499 168.5,22.5 Z"/></g>
<g><path style="opacity:0.714" fill="#020602" d="M 178.5,16.5 C 179.552,16.3505 180.552,16.5172 181.5,17C 183.647,20.1149 186.147,22.9482 189,25.5C 189.498,22.5184 189.665,19.5184 189.5,16.5C 190.5,16.5 191.5,16.5 192.5,16.5C 192.828,21.8746 192.495,27.2079 191.5,32.5C 188.516,30.0164 185.682,27.3497 183,24.5C 182.503,27.146 182.336,29.8127 182.5,32.5C 181.167,32.5 179.833,32.5 178.5,32.5C 178.5,27.1667 178.5,21.8333 178.5,16.5 Z"/></g>
<g><path style="opacity:1" fill="#9ea99e" d="M 46.5,21.5 C 46.56,20.9569 46.8933,20.6236 47.5,20.5C 48.4909,24.4454 48.8242,28.4454 48.5,32.5C 47.8333,28.8333 47.1667,25.1667 46.5,21.5 Z"/></g>
<g><path style="opacity:1" fill="#fefffe" d="M 45.5,40.5 C 54.1922,40.1686 62.8589,40.502 71.5,41.5C 67.1667,41.8333 62.8333,42.1667 58.5,42.5C 53.7784,42.4921 49.4451,41.8255 45.5,40.5 Z"/></g>
<g><path style="opacity:0.729" fill="#020602" d="M 109.5,41.5 C 111.144,41.2865 112.644,41.6198 114,42.5C 117.4,48.6294 120.234,54.9627 122.5,61.5C 119.255,61.7066 117.255,60.2066 116.5,57C 113.118,56.1764 109.784,56.343 106.5,57.5C 105.814,60.9981 103.814,62.1647 100.5,61C 104.188,54.793 107.188,48.293 109.5,41.5 Z M 111.5,46.5 C 113.293,48.4261 114.293,50.7594 114.5,53.5C 112.473,53.6621 110.473,53.4955 108.5,53C 109.914,51.0065 110.914,48.8398 111.5,46.5 Z"/></g>
<g><path style="opacity:1" fill="#a1aca1" d="M 39.5,46.5 C 51.989,45.5046 64.6557,45.1713 77.5,45.5C 77.5,48.8333 77.5,52.1667 77.5,55.5C 77.5,55.8333 77.5,56.1667 77.5,56.5C 76.5206,53.3752 76.1872,50.0419 76.5,46.5C 64.1667,46.5 51.8333,46.5 39.5,46.5 Z"/></g>
<g><path style="opacity:0.77" fill="#020602" d="M 124.5,45.5 C 129.5,45.5 134.5,45.5 139.5,45.5C 139.5,46.5 139.5,47.5 139.5,48.5C 135.5,48.5 131.5,48.5 127.5,48.5C 127.5,49.5 127.5,50.5 127.5,51.5C 130.167,51.5 132.833,51.5 135.5,51.5C 135.5,52.5 135.5,53.5 135.5,54.5C 132.833,54.5 130.167,54.5 127.5,54.5C 127.5,56.8333 127.5,59.1667 127.5,61.5C 126.5,61.5 125.5,61.5 124.5,61.5C 124.5,56.1667 124.5,50.8333 124.5,45.5 Z"/></g>
<g><path style="opacity:0.759" fill="#020602" d="M 141.5,45.5 C 145.846,45.3343 150.179,45.501 154.5,46C 158.452,49.0759 158.452,52.2426 154.5,55.5C 155.752,57.0009 156.752,58.6675 157.5,60.5C 156.833,60.8333 156.167,61.1667 155.5,61.5C 153.005,59.8363 151.005,57.6696 149.5,55C 147.866,54.5065 146.199,54.3398 144.5,54.5C 144.5,56.8333 144.5,59.1667 144.5,61.5C 143.5,61.5 142.5,61.5 141.5,61.5C 141.5,56.1667 141.5,50.8333 141.5,45.5 Z M 144.5,48.5 C 147.187,48.3359 149.854,48.5026 152.5,49C 152.957,49.414 153.291,49.914 153.5,50.5C 150.572,51.4841 147.572,51.8174 144.5,51.5C 144.5,50.5 144.5,49.5 144.5,48.5 Z"/></g>
<g><path style="opacity:0.859" fill="#020602" d="M 160.5,45.5 C 161.5,45.5 162.5,45.5 163.5,45.5C 163.5,50.8333 163.5,56.1667 163.5,61.5C 162.5,61.5 161.5,61.5 160.5,61.5C 160.5,56.1667 160.5,50.8333 160.5,45.5 Z"/></g>
<g><path style="opacity:0.727" fill="#020602" d="M 171.5,45.5 C 176.461,44.6866 180.794,45.8533 184.5,49C 183.667,49.8333 182.833,50.6667 182,51.5C 178.603,48.0193 174.936,47.686 171,50.5C 169.824,57.1937 172.657,59.6937 179.5,58C 181.133,55.1401 182.8,54.9735 184.5,57.5C 183.687,58.8139 182.687,59.9805 181.5,61C 178.167,61.6667 174.833,61.6667 171.5,61C 167.139,58.7742 165.639,55.2742 167,50.5C 168.025,48.313 169.525,46.6464 171.5,45.5 Z"/></g>
<g><path style="opacity:0.717" fill="#020602" d="M 192.5,45.5 C 193.822,45.33 194.989,45.6634 196,46.5C 198.372,51.4118 200.872,56.2451 203.5,61C 200.469,62.0748 198.469,61.0748 197.5,58C 196.333,57.8333 195.167,57.6667 194,57.5C 191.275,57.9819 189.108,59.3153 187.5,61.5C 186.833,61.1667 186.167,60.8333 185.5,60.5C 188.118,55.5986 190.452,50.5986 192.5,45.5 Z M 193.5,51.5 C 196.3,53.4756 195.967,54.3089 192.5,54C 193.252,53.3292 193.586,52.4959 193.5,51.5 Z"/></g>
<g><path style="opacity:0.702" fill="#020602" d="M 204.5,45.5 C 208.067,47.5566 211.234,50.2232 214,53.5C 214.497,50.854 214.664,48.1873 214.5,45.5C 215.833,45.5 217.167,45.5 218.5,45.5C 218.5,50.8333 218.5,56.1667 218.5,61.5C 217.448,61.6495 216.448,61.4828 215.5,61C 212.882,58.2605 210.382,55.4272 208,52.5C 207.502,55.4816 207.335,58.4816 207.5,61.5C 206.5,61.5 205.5,61.5 204.5,61.5C 204.5,56.1667 204.5,50.8333 204.5,45.5 Z"/></g>
<g><path style="opacity:0.941" fill="#f5f6f5" d="M 39.5,46.5 C 51.8333,46.5 64.1667,46.5 76.5,46.5C 76.1872,50.0419 76.5206,53.3752 77.5,56.5C 77.5,59.1667 77.5,61.8333 77.5,64.5C 74.6585,72.6734 68.9918,77.6734 60.5,79.5C 60.1795,84.6946 60.5128,89.6946 61.5,94.5C 65.3727,96.4302 69.706,97.0969 74.5,96.5C 74.5,97.5 74.5,98.5 74.5,99.5C 63.5,99.5 52.5,99.5 41.5,99.5C 41.5,98.5 41.5,97.5 41.5,96.5C 43.8333,96.5 46.1667,96.5 48.5,96.5C 50.5,96.5 52.5,96.5 54.5,96.5C 55.1667,96.5 55.5,96.1667 55.5,95.5C 55.5,90.1667 55.5,84.8333 55.5,79.5C 48.8233,78.0065 43.8233,74.3399 40.5,68.5C 39.5773,64.9359 39.244,61.2693 39.5,57.5C 39.5,53.8333 39.5,50.1667 39.5,46.5 Z"/></g>
<g><path style="opacity:1" fill="#495e49" d="M 42.5,48.5 C 53.1667,48.5 63.8333,48.5 74.5,48.5C 74.666,53.8437 74.4994,59.1771 74,64.5C 69.5753,75.3176 61.742,78.8176 50.5,75C 47.6667,73.5 45.5,71.3333 44,68.5C 42.6226,61.9236 42.1226,55.2569 42.5,48.5 Z"/></g>
<g><path style="opacity:1" fill="#ebeeeb" d="M 45.5,51.5 C 54.1667,51.5 62.8333,51.5 71.5,51.5C 71.839,56.9302 71.339,62.2636 70,67.5C 69.6667,67.8333 69.3333,68.1667 69,68.5C 68.501,64.1794 68.3343,59.8461 68.5,55.5C 67.5,55.5 66.5,55.5 65.5,55.5C 65.8282,60.8746 65.4948,66.2079 64.5,71.5C 62.9291,72.3094 61.2624,72.6427 59.5,72.5C 59.5,66.8333 59.5,61.1667 59.5,55.5C 58.5,55.5 57.5,55.5 56.5,55.5C 56.5,61.1667 56.5,66.8333 56.5,72.5C 54.8561,72.7135 53.3561,72.3802 52,71.5C 51.5006,66.1771 51.334,60.8437 51.5,55.5C 50.5,55.5 49.5,55.5 48.5,55.5C 48.6657,59.8461 48.499,64.1794 48,68.5C 47.6667,68.1667 47.3333,67.8333 47,67.5C 45.6033,62.2919 45.1033,56.9586 45.5,51.5 Z"/></g>
<g><path style="opacity:0.86" fill="#4b604b" d="M 77.5,64.5 C 77.9382,64.4346 78.2716,64.6012 78.5,65C 77.7887,67.7963 77.122,70.6296 76.5,73.5C 74.5781,74.711 72.7448,76.0443 71,77.5C 71.3052,79.4432 71.3052,81.4432 71,83.5C 68.7529,87.9171 65.5863,91.5837 61.5,94.5C 60.5128,89.6946 60.1795,84.6946 60.5,79.5C 68.9918,77.6734 74.6585,72.6734 77.5,64.5 Z"/></g>
<g><path style="opacity:0.928" fill="#455b45" d="M 40.5,68.5 C 43.8233,74.3399 48.8233,78.0065 55.5,79.5C 55.5,84.8333 55.5,90.1667 55.5,95.5C 54.8333,95.5 54.5,95.8333 54.5,96.5C 52.5,96.5 50.5,96.5 48.5,96.5C 45.9385,88.2481 42.9385,80.0815 39.5,72C 39.9891,70.8615 40.3225,69.6948 40.5,68.5 Z"/></g>
<g><path style="opacity:0.721" fill="#020602" d="M 103.5,70.5 C 108.179,70.3342 112.845,70.5008 117.5,71C 123.915,75.6679 124.915,81.3345 120.5,88C 115.1,90.278 109.434,91.1113 103.5,90.5C 103.5,83.8333 103.5,77.1667 103.5,70.5 Z M 107.5,73.5 C 114.088,71.8009 118.088,74.1342 119.5,80.5C 117.78,86.3707 113.78,88.704 107.5,87.5C 107.5,82.8333 107.5,78.1667 107.5,73.5 Z"/></g>
<g><path style="opacity:0.739" fill="#020602" d="M 125.5,74.5 C 126.833,74.5 128.167,74.5 129.5,74.5C 129.334,78.5138 129.501,82.5138 130,86.5C 132.667,87.8333 135.333,87.8333 138,86.5C 138.499,82.5138 138.666,78.5138 138.5,74.5C 139.5,74.5 140.5,74.5 141.5,74.5C 141.666,79.1785 141.499,83.8452 141,88.5C 139.004,90.0591 136.671,90.7258 134,90.5C 132.167,90.3333 130.333,90.1667 128.5,90C 127.572,89.6121 126.905,88.9454 126.5,88C 125.588,83.5536 125.255,79.0536 125.5,74.5 Z"/></g>
<g><path style="opacity:0.73" fill="#020602" d="M 145.5,74.5 C 149.846,74.3343 154.179,74.501 158.5,75C 160.779,79.166 161.612,83.666 161,88.5C 160.25,89.1258 159.416,89.6258 158.5,90C 154.179,90.499 149.846,90.6657 145.5,90.5C 145.5,85.1667 145.5,79.8333 145.5,74.5 Z M 149.5,77.5 C 160.167,78.5 160.167,79.5 149.5,80.5C 149.5,79.5 149.5,78.5 149.5,77.5 Z M 149.5,83.5 C 152.722,83.1081 155.722,83.6081 158.5,85C 155.998,87.212 152.998,88.0453 149.5,87.5C 149.5,86.1667 149.5,84.8333 149.5,83.5 Z"/></g>
<g><path style="opacity:0.801" fill="#020602" d="M 165.5,74.5 C 169.902,74.2281 174.235,74.5614 178.5,75.5C 183.914,88.7584 179.58,93.7584 165.5,90.5C 165.5,85.1667 165.5,79.8333 165.5,74.5 Z M 168.5,77.5 C 179.167,78.5 179.167,79.5 168.5,80.5C 168.5,79.5 168.5,78.5 168.5,77.5 Z M 168.5,83.5 C 171.187,83.3359 173.854,83.5026 176.5,84C 177.833,85 177.833,86 176.5,87C 173.854,87.4974 171.187,87.6641 168.5,87.5C 168.5,86.1667 168.5,84.8333 168.5,83.5 Z"/></g>
<g><path style="opacity:0.782" fill="#020602" d="M 184.5,74.5 C 185.5,74.5 186.5,74.5 187.5,74.5C 187.5,79.8333 187.5,85.1667 187.5,90.5C 186.5,90.5 185.5,90.5 184.5,90.5C 184.5,85.1667 184.5,79.8333 184.5,74.5 Z"/></g>
<g><path style="opacity:0.729" fill="#020602" d="M 192.5,74.5 C 196.434,76.5978 199.6,79.5978 202,83.5C 202.498,80.5184 202.665,77.5184 202.5,74.5C 203.833,74.5 205.167,74.5 206.5,74.5C 206.5,79.8333 206.5,85.1667 206.5,90.5C 201.991,88.8354 198.491,85.8354 196,81.5C 195.502,84.4816 195.335,87.4816 195.5,90.5C 194.5,90.5 193.5,90.5 192.5,90.5C 192.5,85.1667 192.5,79.8333 192.5,74.5 Z"/></g>
<g><path style="opacity:0.726" fill="#020602" d="M 213.5,74.5 C 216.85,74.335 220.183,74.5017 223.5,75C 225.116,75.6152 226.449,76.6152 227.5,78C 226.892,78.8699 226.059,79.3699 225,79.5C 220.606,76.5232 216.606,76.8565 213,80.5C 212.004,85.0076 213.837,87.341 218.5,87.5C 220.481,87.5629 222.148,86.8962 223.5,85.5C 222.675,84.6143 221.675,84.281 220.5,84.5C 220.5,83.5 220.5,82.5 220.5,81.5C 222.833,81.5 225.167,81.5 227.5,81.5C 227.945,84.3646 227.278,86.8646 225.5,89C 219.986,91.3652 214.819,90.8652 210,87.5C 207.676,82.1667 208.843,77.8334 213.5,74.5 Z"/></g>
</svg>
